<?xml version="1.0" encoding="UTF-8"?>
<svg width="16px" height="16px" viewBox="0 0 16 16" version="1.1" xmlns="http://www.w3.org/2000/svg" xmlns:xlink="http://www.w3.org/1999/xlink">
  <!-- Generator: sketchtool 55.2 (78181) - https://sketchapp.com -->
  <title>4710F971-3922-423C-A8AD-FEF76E71455A@1x</title>
  <desc>Created with sketchtool.</desc>
  <defs>
    <path d="M18.7857102,16.7979705 C18.7879143,17.3410033 18.5610779,17.8598018 18.1609281,18.2269116 C17.7607784,18.5940215 17.2244004,18.7754198 16.6745603,18.7256457 C14.398839,18.47837 12.2128485,17.7007349 10.296125,16.4577212 C8.50833479,15.3216849 6.99260081,13.8059509 5.85893149,12.0218498 C4.60907407,10.0925121 3.83126236,7.89589076 3.58774342,5.60214308 C3.53902116,5.06298426 3.71914857,4.5281722 4.08412471,4.1283491 C4.4490717,3.72855792 4.96524663,3.50053468 5.50714286,3.49992977 L7.64512814,3.49995351 C8.61312737,3.49052114 9.4381727,4.20008854 9.57427862,5.16319268 C9.65979283,5.81156867 9.81838167,6.44818959 10.0465976,7.05978384 C10.3115206,7.7645562 10.1420764,8.55906131 9.61069625,9.09641053 L8.97782847,9.72927831 C9.87422385,11.1856868 11.1000293,12.411492 12.556438,13.3078871 L13.1912876,12.6730453 C13.726653,12.1436379 14.5211581,11.9741937 15.2248024,12.2386942 C15.8375247,12.4673326 16.4741456,12.6259215 17.126989,12.7120454 C18.0944405,12.8485291 18.8066158,13.6867824 18.7857143,14.6628896 L18.7857102,16.7979705 Z M17.7857143,14.6571429 L17.7858681,14.6447403 C17.7975635,14.173394 17.4541651,13.7681041 16.9917641,13.70285 C16.2686166,13.6074742 15.5585798,13.4305967 14.8740696,13.175169 C14.5347347,13.0476135 14.1521952,13.1291977 13.8964105,13.3821248 L12.9892677,14.2892677 C12.8301112,14.4484242 12.584229,14.481618 12.388567,14.3703615 C10.5220842,13.3090501 8.97666419,11.7636301 7.91535275,9.89714725 C7.8040963,9.70148533 7.83729011,9.45560311 7.99644661,9.29644661 L8.9016167,8.39128758 C9.15651656,8.13351906 9.23810081,7.75097956 9.1101228,7.41051671 C8.85511755,6.72713453 8.67824005,6.01709769 8.58349225,5.29854721 C8.51826046,4.83703182 8.12098833,4.49536411 7.65,4.49988455 L5.50770128,4.49988455 C5.24698842,4.50022064 4.99841334,4.61003011 4.82268355,4.80253813 C4.6469543,4.99504555 4.56022628,5.25254765 4.58291865,5.50434307 C4.80908479,7.63410147 5.53375173,9.68063644 6.70057832,11.4818393 C7.7578794,13.1457232 9.16856252,14.5564063 10.8363363,15.6162045 C12.6257218,16.7766145 14.6623523,17.5011169 16.7735755,17.7306009 C17.0339767,17.7541347 17.2922327,17.6667948 17.4848974,17.4900382 C17.6775621,17.3132816 17.7867797,17.0634897 17.7857143,16.8 L17.7857143,14.6571429 Z" id="path-1"></path>
  </defs>
  <g id="VISUAL-MOCKUPS" stroke="none" stroke-width="1" fill="none" fill-rule="evenodd">
    <g id="60.10---Settings" transform="translate(-387.000000, -744.000000)">
      <g id="Group-8" transform="translate(370.000000, 80.000000)">
        <g id="Group-Copy" transform="translate(14.000000, 580.000000)">
          <g id="Group-3" transform="translate(0.000000, 81.000000)">
            <g id="icon/job-role-copy">
              <mask id="mask-2" fill="white">
                <use xlink:href="#path-1"></use>
              </mask>
              <use id="Path" fill="#212B36" fill-rule="nonzero" xlink:href="#path-1"></use>
              <g id="color" mask="url(#mask-2)" fill="#062037">
                <rect id="Rectangle" x="0" y="0" width="22" height="22"></rect>
              </g>
            </g>
          </g>
        </g>
      </g>
    </g>
  </g>
</svg>
