<?xml version="1.0" encoding="UTF-8"?>
<svg width="17px" height="17px" viewBox="0 0 17 17" version="1.1" xmlns="http://www.w3.org/2000/svg" xmlns:xlink="http://www.w3.org/1999/xlink">
    <!-- Generator: sketchtool 55.2 (78181) - https://sketchapp.com -->
    <title>C36E7C05-B2EB-4E75-9D2B-591FE47BA11C@1x</title>
    <desc>Created with sketchtool.</desc>
    <defs>
        <path d="M3,18.6241039 L19.25,18.6241039 L19.25,19.8741039 L3,19.8741039 L3,18.6241039 Z M17.0088125,7.37410395 C17.4964868,6.88582925 17.4964868,6.09481614 17.0088125,5.60654145 L14.7675625,3.36529145 C14.2790318,2.87823618 13.4885307,2.87823618 13,3.36529145 L3.625,12.7402914 L3.625,16.7491039 L7.6338125,16.7491039 L17.0088125,7.37410395 Z M13.8831875,4.24847895 L16.125,6.49029145 L14.25,8.36529145 L12.0083125,6.12360395 L13.8831875,4.24847895 Z M4.875,15.4991039 L4.875,13.2579164 L11.1245625,7.00747895 L13.3661875,9.24910395 L7.1161875,15.4991039 L4.875,15.4991039 Z" id="path-1"></path>
    </defs>
    <g id="VISUAL-MOCKUPS" stroke="none" stroke-width="1" fill="none" fill-rule="evenodd">
        <g id="50.40---All-Alerts" transform="translate(-1329.000000, -464.000000)">
            <g id="Group" transform="translate(158.000000, 230.000000)">
                <g id="table-/-row-8-copy" transform="translate(0.000000, 212.000000)">
                    <g id="Group-6" transform="translate(1124.000000, 19.000000)">
                        <g id="icon/edit" transform="translate(44.000000, 0.000000)">
                            <mask id="mask-2" fill="white">
                                <use xlink:href="#path-1"></use>
                            </mask>
                            <use id="icon-color" fill="#455E75" xlink:href="#path-1"></use>
                            <g id="color" mask="url(#mask-2)" fill="#455E75">
                                <rect id="Rectangle" x="0" y="0" width="22" height="22"></rect>
                            </g>
                        </g>
                    </g>
                </g>
            </g>
        </g>
    </g>
</svg>