<?xml version="1.0" encoding="UTF-8"?>
<svg width="14px" height="14px" viewBox="0 0 14 14" version="1.1" xmlns="http://www.w3.org/2000/svg" xmlns:xlink="http://www.w3.org/1999/xlink">
    <!-- Generator: sketchtool 55.2 (78181) - https://sketchapp.com -->
    <title>B21AECB3-07CB-40FC-AA5B-299F6B3131A5@1x</title>
    <desc>Created with sketchtool.</desc>
    <defs>
        <path d="M11,4 C7.15,4 4,7.15 4,11 C4,14.85 7.15,18 11,18 C14.85,18 18,14.85 18,11 C18,7.15 14.85,4 11,4 Z M11,17 C7.7,17 5,14.3 5,11 C5,7.7 7.7,5 11,5 C14.3,5 17,7.7 17,11 C17,14.3 14.3,17 11,17 Z M11,15 C11.4142136,15 11.75,14.6642136 11.75,14.25 C11.75,13.8357864 11.4142136,13.5 11,13.5 C10.5857864,13.5 10.25,13.8357864 10.25,14.25 C10.25,14.6642136 10.5857864,15 11,15 Z M11.5,7 L10.75,7 C9.5,7 8.5,8 8.5,9.25 L8.5,9.5 L9.5,9.5 L9.5,9.25 C9.5,8.55 10.05,8 10.75,8 L11.5,8 C12.2,8 12.75,8.55 12.75,9.25 C12.75,9.95 12.2,10.5 11.5,10.5 L10.5,10.5 L10.5,12.5 L11.5,12.5 L11.5,11.5 C12.75,11.5 13.75,10.5 13.75,9.25 C13.75,8 12.75,7 11.5,7 Z" id="path-1"></path>
    </defs>
    <g id="VISUAL-MOCKUPS" stroke="none" stroke-width="1" fill="none" fill-rule="evenodd">
        <g id="Version-4---10.10---UPbook---Home" transform="translate(-785.000000, -195.000000)">
            <g id="HEADER" transform="translate(158.000000, 0.000000)">
                <g id="SCHEDULING-RATE/TARGET" transform="translate(458.000000, 124.000000)">
                    <g id="Group">
                        <g id="icon/info" transform="translate(165.000000, 67.000000)">
                            <mask id="mask-2" fill="white">
                                <use xlink:href="#path-1"></use>
                            </mask>
                            <use id="icon-color" fill="#212B36" xlink:href="#path-1"></use>
                            <g id="color" mask="url(#mask-2)" fill="#062037">
                                <rect id="Rectangle" x="0" y="0" width="22" height="22"></rect>
                            </g>
                        </g>
                    </g>
                </g>
            </g>
        </g>
    </g>
</svg>