<?xml version="1.0" encoding="UTF-8"?>
<svg width="16px" height="21px" viewBox="0 0 16 21" version="1.1" xmlns="http://www.w3.org/2000/svg" xmlns:xlink="http://www.w3.org/1999/xlink">
  <!-- Generator: Sketch 55.2 (78181) - https://sketchapp.com -->
  <title>icon/location@1x</title>
  <desc>Created with Sketch.</desc>
  <defs>
    <path d="M12,6.64503405 C13.1502129,6.64503405 14.0826446,7.57746581 14.0826446,8.72767868 C14.0826446,9.87789155 13.1502129,10.8103233 12,10.8103233 C10.8497871,10.8103233 9.91735537,9.87789155 9.91735537,8.72767868 C9.91735537,7.57746581 10.8497871,6.64503405 12,6.64503405 L12,6.64503405 Z M12,5.2566043 C10.0829786,5.2566043 8.52892562,6.81065723 8.52892562,8.72767868 C8.52892562,10.6447001 10.0829786,12.1987531 12,12.1987531 C13.9170214,12.1987531 15.4710744,10.6447001 15.4710744,8.72767868 C15.4710744,6.81068434 13.9169943,5.2566043 12,5.2566043 L12,5.2566043 Z M12,2.47988364 C15.394007,2.42961665 18.1886079,5.13541136 18.247934,8.52927207 C18.2482306,9.8391928 17.8119825,11.1118577 17.0081355,12.1461316 L16.9848793,12.1763993 L16.9632893,12.2079167 L12,19.4591993 L7.03636364,12.2077779 L7.01477355,12.1762605 L6.99151736,12.1459927 C6.18783843,11.1117302 5.75171646,9.83915009 5.75206591,8.52934149 C5.81139211,5.13548078 8.60599303,2.42968607 12,2.47995306 L12,2.47988364 Z M12,1.09152331 C7.83827976,1.03895232 4.42069452,4.36768035 4.36363636,8.52934149 C4.36529666,10.1448538 4.90239418,11.7142527 5.89090909,12.9920324 L12,21.9173448 L18.1090909,12.9920324 C19.0976058,11.7142527 19.6347033,10.1448538 19.6363636,8.52934149 C19.5793055,4.36768035 16.1617202,1.03895232 12,1.09152331 Z" id="path-1"></path>
  </defs>
  <g id="Symbols" stroke="none" stroke-width="1" fill="none" fill-rule="evenodd">
    <g id="components-/-top-bar-2" transform="translate(-26.000000, -19.000000)">
      <g id="TOP-BAR" transform="translate(22.000000, 9.000000)">
        <g id="icon/location">
          <g transform="translate(0.000000, 9.000000)">
            <mask id="mask-2" fill="white">
              <use xlink:href="#path-1"></use>
            </mask>
            <use id="icon-color" fill="#000000" fill-rule="evenodd" xlink:href="#path-1"></use>
            <g id="color-/-Blue-#062037---ui-07" mask="url(#mask-2)" fill="#062037" fill-rule="evenodd">
              <rect id="Rectangle" x="0" y="0" width="24" height="24"></rect>
            </g>
          </g>
        </g>
      </g>
    </g>
  </g>
</svg>
