<?xml version="1.0" encoding="UTF-8"?>
<svg width="20px" height="14px" viewBox="0 0 20 14" version="1.1" xmlns="http://www.w3.org/2000/svg" xmlns:xlink="http://www.w3.org/1999/xlink">
    <!-- Generator: sketchtool 55.2 (78181) - https://sketchapp.com -->
    <title>AB8A6C37-D54F-4DC9-A518-2CCA5E60CD0F@1x</title>
    <desc>Created with sketchtool.</desc>
    <defs>
        <path d="M2,11.5 C1.72385763,11.5 1.5,11.2761424 1.5,11 C1.5,10.7238576 1.72385763,10.5 2,10.5 L20,10.5 C20.2761424,10.5 20.5,10.7238576 20.5,11 C20.5,11.2761424 20.2761424,11.5 20,11.5 L2,11.5 Z M2,5.5 C1.72385763,5.5 1.5,5.27614237 1.5,5 C1.5,4.72385763 1.72385763,4.5 2,4.5 L20,4.5 C20.2761424,4.5 20.5,4.72385763 20.5,5 C20.5,5.27614237 20.2761424,5.5 20,5.5 L2,5.5 Z M2,17.5 C1.72385763,17.5 1.5,17.2761424 1.5,17 C1.5,16.7238576 1.72385763,16.5 2,16.5 L20,16.5 C20.2761424,16.5 20.5,16.7238576 20.5,17 C20.5,17.2761424 20.2761424,17.5 20,17.5 L2,17.5 Z" id="path-1"></path>
    </defs>
    <g id="VISUAL-MOCKUPS" stroke="none" stroke-width="1" fill="none" fill-rule="evenodd" opacity="0.400000006">
        <g id="Version-4---10.10---UPbook---Home" transform="translate(-19.000000, -23.000000)">
            <g id="menu">
                <g id="Brand-/-Logo">
                    <g id="icon/menu" transform="translate(18.000000, 19.000000)">
                        <mask id="mask-2" fill="white">
                            <use xlink:href="#path-1"></use>
                        </mask>
                        <use id="Combined-Shape" fill="#FFFFFF" fill-rule="nonzero" xlink:href="#path-1"></use>
                        <g id="color" mask="url(#mask-2)" fill="#FFFFFF">
                            <rect id="Rectangle" x="0" y="0" width="22" height="22"></rect>
                        </g>
                    </g>
                </g>
            </g>
        </g>
    </g>
</svg>