<?xml version="1.0" encoding="UTF-8"?>
<svg width="22px" height="22px" viewBox="0 0 22 22" version="1.1" xmlns="http://www.w3.org/2000/svg" xmlns:xlink="http://www.w3.org/1999/xlink">
    <!-- Generator: Sketch 55.2 (78181) - https://sketchapp.com -->
    <title>icon/note@1x</title>
    <desc>Created with Sketch.</desc>
    <defs>
        <path d="M11.87,18 L11,17.5 L13,14 L16,14 C16.5522847,14 17,13.5522847 17,13 L17,7 C17,6.44771525 16.5522847,6 16,6 L6,6 C5.44771525,6 5,6.44771525 5,7 L5,13 C5,13.5522847 5.44771525,14 6,14 L10.5,14 L10.5,15 L6,15 C4.8954305,15 4,14.1045695 4,13 L4,7 C4,5.8954305 4.8954305,5 6,5 L16,5 C17.1045695,5 18,5.8954305 18,7 L18,13 C18,14.1045695 17.1045695,15 16,15 L13.58,15 L11.87,18 Z M7,8 L15,8 L15,9 L7,9 L7,8 Z M7,11 L12,11 L12,12 L7,12 L7,11 Z" id="path-1"></path>
    </defs>
    <g id="icon/note" stroke="none" stroke-width="1" fill="none" fill-rule="evenodd">
        <mask id="mask-2" fill="white">
            <use xlink:href="#path-1"></use>
        </mask>
        <use id="icon-color" fill="#444444" xlink:href="#path-1"></use>
        <g id="color-/-Blue-#062037---ui-07" mask="url(#mask-2)" fill="#062037">
            <rect id="Rectangle" x="0" y="0" width="22" height="22"></rect>
        </g>
    </g>
</svg>