<?xml version="1.0" encoding="UTF-8"?>
<svg width="66px" height="42px" viewBox="0 0 66 42" version="1.1" xmlns="http://www.w3.org/2000/svg" xmlns:xlink="http://www.w3.org/1999/xlink">
    <!-- Generator: sketchtool 55.2 (78181) - https://sketchapp.com -->
    <title>2C7BAC5D-D24B-4725-911C-43833E7B3D9E@1x</title>
    <desc>Created with sketchtool.</desc>
    <g id="VISUAL-MOCKUPS" stroke="none" stroke-width="1" fill="none" fill-rule="evenodd">
        <g id="Version-4---10.20---UPbook---Call-Details---Comments" transform="translate(-685.000000, -408.000000)" fill="#FFFFFF">
            <g id="CALL-DETAILS" transform="translate(241.000000, 38.000000)">
                <g id="AUDIO-VISUALIZATION" transform="translate(0.000000, 138.000000)">
                    <g id="Group-8" transform="translate(50.000000, 232.000000)">
                        <g id="Group-6" transform="translate(0.500000, 0.000000)">
                            <path d="M398,0 L455,0 C457.209139,-4.05812251e-16 459,1.790861 459,4 L459,38 C459,40.209139 457.209139,42 455,42 L398,42 C395.790861,42 394,40.209139 394,38 L394,4 C394,1.790861 395.790861,4.05812251e-16 398,0 Z M440.128871,21.4928526 C440.537108,21.320927 440.541243,20.869165 440.135961,20.6926669 L417.880869,10.9802406 C417.486812,10.808315 417,11.0282517 417,11.3785045 L417,30.4627065 C417,30.8097585 417.479722,31.0301525 417.873189,30.8641711 L440.128871,21.4928526 Z" id="Call-Details---Play"></path>
                        </g>
                    </g>
                </g>
            </g>
        </g>
    </g>
</svg>