<?xml version="1.0" encoding="UTF-8"?>
<svg width="22px" height="22px" viewBox="0 0 22 22" version="1.1" xmlns="http://www.w3.org/2000/svg" xmlns:xlink="http://www.w3.org/1999/xlink">
    <!-- Generator: Sketch 56.2 (81672) - https://sketch.com -->
    <title>icon/volume muted@1x</title>
    <desc>Created with Sketch.</desc>
    <g id="icon/volume-muted" stroke="none" stroke-width="1" fill="none" fill-rule="evenodd">
        <g id="Group-Copy" transform="translate(0.791221, 0.837599)">
            <polygon id="Path-2" stroke="#FFFFFF" stroke-linejoin="round" points="-9.08606523e-13 6.05926402 -9.08606523e-13 13.6342786 5.20877858 13.6342786 11.2341933 19.6596933 11.2341933 2.27373675e-13 5.20877858 6.02541472 1.24742733 6.02541472 -9.08606523e-13 6.02541472"></polygon>
            <path d="M17.5355339,9.82842712 L20.0104076,12.3033009 C20.2056698,12.498563 20.2056698,12.8151455 20.0104076,13.0104076 C19.8151455,13.2056698 19.498563,13.2056698 19.3033009,13.0104076 L16.8284271,10.5355339 L14.3535534,13.0104076 C14.1582912,13.2056698 13.8417088,13.2056698 13.6464466,13.0104076 C13.4511845,12.8151455 13.4511845,12.498563 13.6464466,12.3033009 L16.1213203,9.82842712 L13.6464466,7.35355339 C13.4511845,7.15829124 13.4511845,6.84170876 13.6464466,6.64644661 C13.8417088,6.45118446 14.1582912,6.45118446 14.3535534,6.64644661 L16.8284271,9.12132034 L19.3033009,6.64644661 C19.498563,6.45118446 19.8151455,6.45118446 20.0104076,6.64644661 C20.2056698,6.84170876 20.2056698,7.15829124 20.0104076,7.35355339 L17.5355339,9.82842712 Z" id="Combined-Shape" fill="#FFFFFF" fill-rule="nonzero"></path>
        </g>
    </g>
</svg>