<?xml version="1.0" encoding="UTF-8"?>
<svg width="31px" height="30px" viewBox="0 0 31 30" version="1.1" xmlns="http://www.w3.org/2000/svg" xmlns:xlink="http://www.w3.org/1999/xlink">
    <!-- Generator: sketchtool 55.2 (78181) - https://sketchapp.com -->
    <title>035B8EE3-60BC-4782-8EA1-58EFC999B873@1x</title>
    <desc>Created with sketchtool.</desc>
    <g id="VISUAL-MOCKUPS" stroke="none" stroke-width="1" fill="none" fill-rule="evenodd">
        <g id="Version-4---10.20---UPbook---Call-Details---Comments" transform="translate(-772.000000, -413.000000)" fill="#FFFFFF">
            <g id="CALL-DETAILS" transform="translate(241.000000, 38.000000)">
                <g id="AUDIO-VISUALIZATION" transform="translate(0.000000, 138.000000)">
                    <g id="Group-8" transform="translate(50.000000, 232.000000)">
                        <g id="Forward" transform="translate(481.500000, 5.000000)">
                            <g id="noun_fast-forward_592047" fill-rule="nonzero">
                                <path d="M29.4652381,3.80380952 C29.1695238,3.73809524 28.8738095,3.9352381 28.8080952,4.23095238 L27.9538095,8.00952381 C25.3909524,3.34380952 20.4952381,0.386666667 15.0738095,0.386666667 C6.9252381,0.386666667 0.320952381,7.02380952 0.320952381,15.172381 C0.320952381,23.3209524 6.9252381,29.9580952 15.0738095,29.9580952 C20.2980952,29.9580952 25.1938095,27.132381 27.822381,22.5980952 C27.9866667,22.3352381 27.8880952,22.0066667 27.6252381,21.842381 C27.362381,21.6780952 27.0338095,21.7766667 26.8695238,22.0395238 C24.4380952,26.2452381 19.9038095,28.8409524 15.0409524,28.8409524 C7.51666667,28.8409524 1.37238095,22.6966667 1.37238095,15.1395238 C1.37238095,7.58238095 7.51666667,1.43809524 15.0409524,1.43809524 C20.1338095,1.43809524 24.7666667,4.26380952 27.132381,8.73238095 L22.7952381,7.51666667 C22.4995238,7.41809524 22.2038095,7.6152381 22.1052381,7.87809524 C22.0066667,8.17380952 22.2038095,8.46952381 22.4666667,8.56809524 L27.9866667,10.1452381 C27.9866667,10.1452381 27.9866667,10.1452381 28.0195238,10.1452381 C28.0195238,10.1452381 28.0195238,10.1452381 28.0195238,10.1452381 C28.052381,10.1452381 28.0852381,10.1452381 28.1509524,10.1452381 C28.1509524,10.1452381 28.1509524,10.1452381 28.1509524,10.1452381 C28.2166667,10.1452381 28.2495238,10.1452381 28.3152381,10.112381 C28.3480952,10.112381 28.3480952,10.112381 28.3809524,10.0795238 C28.4138095,10.0795238 28.4466667,10.0466667 28.4795238,10.0138095 C28.512381,10.0138095 28.512381,9.98095238 28.512381,9.98095238 C28.512381,9.98095238 28.5452381,9.94809524 28.5452381,9.94809524 C28.5452381,9.94809524 28.5780952,9.9152381 28.5780952,9.9152381 C28.5780952,9.88238095 28.6109524,9.88238095 28.6109524,9.84952381 C28.6438095,9.81666667 28.6438095,9.78380952 28.6438095,9.75095238 C28.6438095,9.75095238 28.6438095,9.71809524 28.6438095,9.71809524 L29.8266667,4.42809524 C29.9252381,4.1652381 29.7609524,3.86952381 29.4652381,3.80380952 Z" id="Path"></path>
                            </g>
                            <text id="5" font-family="OpenSans-Bold, Open Sans" font-size="14" font-weight="bold">
                                <tspan x="10.4736328" y="20">5</tspan>
                            </text>
                        </g>
                    </g>
                </g>
            </g>
        </g>
    </g>
</svg>
