<?xml version="1.0" encoding="UTF-8"?>
<svg width="22px" height="22px" viewBox="0 0 22 22" version="1.1" xmlns="http://www.w3.org/2000/svg" xmlns:xlink="http://www.w3.org/1999/xlink">
    <!-- Generator: Sketch 56.2 (81672) - https://sketch.com -->
    <title>icon/volume@1x</title>
    <desc>Created with Sketch.</desc>
    <defs>
        <path d="M5.79289322,14.971878 L0.791221422,14.971878 C0.515079047,14.971878 0.291221422,14.7480204 0.291221422,14.471878 L0.291221422,6.86301411 C0.291221422,6.58687174 0.515079047,6.36301411 0.791221422,6.36301411 L5.79289322,6.36301411 L11.6718613,0.484046004 C11.9868438,0.169063574 12.5254147,0.392146969 12.5254147,0.837599395 L12.5254147,20.4972927 C12.5254147,20.9427451 11.9868438,21.1658285 11.6718613,20.8508461 L5.79289322,14.971878 Z M1.29122142,7.36301411 L1.29122142,13.971878 L6,13.971878 C6.13260824,13.971878 6.2597852,14.0245564 6.35355339,14.1183246 L11.5254147,19.2901859 L11.5254147,2.04470618 L6.35355339,7.2165675 C6.2597852,7.31033569 6.13260824,7.36301411 6,7.36301411 L1.29122142,7.36301411 Z M18.1805027,16.1331071 C17.9860555,16.3291807 17.6694758,16.3304992 17.4734021,16.136052 C17.2773284,15.9416047 17.27601,15.625025 17.4704572,15.4289513 C18.7624985,14.126103 19.5,12.371997 19.5,10.5 C19.5,8.72874018 18.8402015,7.06177443 17.6697914,5.78047356 C17.4835514,5.57658815 17.4978558,5.26032899 17.7017412,5.07408895 C17.9056266,4.88784891 18.2218858,4.90215331 18.4081258,5.10603871 C19.7452632,6.5698636 20.5,8.47668865 20.5,10.5 C20.5,12.6384731 19.6564463,14.6448183 18.1805027,16.1331071 Z M16.0747373,14.7340547 C15.9075651,14.9538457 15.5938695,14.9965017 15.3740785,14.8293296 C15.1542875,14.6621575 15.1116315,14.3484619 15.2788036,14.1286709 C16.0667586,13.0927 16.5,11.8298921 16.5,10.5 C16.5,9.16721477 16.0648627,7.90183033 15.2737424,6.86468442 C15.1062658,6.64512532 15.148487,6.33137089 15.3680461,6.16389429 C15.5876052,5.99641768 15.9013596,6.03863889 16.0688362,6.25819799 C16.9917397,7.46810942 17.5,8.94613656 17.5,10.5 C17.5,12.0504874 16.9939535,13.5255071 16.0747373,14.7340547 Z" id="path-1"></path>
    </defs>
    <g id="icon/volume" stroke="none" stroke-width="1" fill="none" fill-rule="evenodd">
        <mask id="mask-2" fill="white">
            <use xlink:href="#path-1"></use>
        </mask>
        <use id="Combined-Shape" fill="#FFFFFF" fill-rule="nonzero" xlink:href="#path-1"></use>
        <g id="color-/-White-#FFFFFF" mask="url(#mask-2)" fill="#FFFFFF">
            <rect id="Rectangle" x="0" y="0" width="22" height="22"></rect>
        </g>
    </g>
</svg>