<?xml version="1.0" encoding="UTF-8"?>
<svg width="17px" height="19px" viewBox="0 0 17 19" version="1.1" xmlns="http://www.w3.org/2000/svg" xmlns:xlink="http://www.w3.org/1999/xlink">
    <!-- Generator: sketchtool 55.2 (78181) - https://sketchapp.com -->
    <title>26AFC970-6B54-4CA6-AD8D-6010CFA1BE3E@1x</title>
    <desc>Created with sketchtool.</desc>
    <defs>
        <path d="M16,8 C16,5.51471863 13.9852814,3.5 11.5,3.5 C9.01471863,3.5 7,5.51471863 7,8 C7,10.6334564 6.51148259,12.6689456 5.68894779,14.1769261 C5.51596664,14.4940582 5.34114522,14.7674131 5.17089263,15 L17.8291074,15 C17.6588548,14.7674131 17.4840334,14.4940582 17.3110522,14.1769261 C16.4885174,12.6689456 16,10.6334564 16,8 Z M17,8 C17,10.4707103 17.4489826,12.3414711 18.1889478,13.6980739 C18.4414509,14.1609964 18.7087957,14.5263675 18.9723513,14.8045652 C19.1217216,14.9622338 19.229654,15.0521775 19.2773501,15.0839749 C19.6889687,15.3583872 19.494704,16 19,16 L4,16 C3.50529602,16 3.31103131,15.3583872 3.7226499,15.0839749 C3.770346,15.0521775 3.87827838,14.9622338 4.02764866,14.8045652 C4.29120431,14.5263675 4.55854905,14.1609964 4.81105221,13.6980739 C5.55101741,12.3414711 6,10.4707103 6,8 C6,4.96243388 8.46243388,2.5 11.5,2.5 C14.5375661,2.5 17,4.96243388 17,8 Z M12.5091667,18.5824474 C12.6477271,18.3435842 12.9536894,18.2622729 13.1925526,18.4008333 C13.4314158,18.5393938 13.5127271,18.8453561 13.3741667,19.0842193 C12.9865524,19.752424 12.272491,20.1637136 11.5,20.1637136 C10.727509,20.1637136 10.0134476,19.752424 9.62583333,19.0842193 C9.48727286,18.8453561 9.56858425,18.5393938 9.8074474,18.4008333 C10.0463106,18.2622729 10.3522729,18.3435842 10.4908333,18.5824474 C10.6995487,18.9422499 11.0840433,19.1637136 11.5,19.1637136 C11.9159567,19.1637136 12.3004513,18.9422499 12.5091667,18.5824474 Z" id="path-1"></path>
    </defs>
    <g id="VISUAL-MOCKUPS" stroke="none" stroke-width="1" fill="none" fill-rule="evenodd" opacity="1">
        <g id="Version-4---10.10---UPbook---Home" transform="translate(-21.000000, -1293.000000)">
            <g id="menu">
                <g id="menu-/-7---Notifications" transform="translate(0.000000, 1282.000000)">
                    <g id="icon/home-copy-2" transform="translate(18.000000, 9.000000)">
                        <mask id="mask-2" fill="white">
                            <use xlink:href="#path-1"></use>
                        </mask>
                        <use id="Combined-Shape" fill="#FFFFFF" fill-rule="nonzero" xlink:href="#path-1"></use>
                        <g id="color" mask="url(#mask-2)" fill="#FFFFFF">
                            <rect id="Rectangle" x="0" y="0" width="22" height="22"></rect>
                        </g>
                    </g>
                </g>
            </g>
        </g>
    </g>
</svg>
