<?xml version="1.0" encoding="UTF-8"?>
<svg width="18px" height="20px" viewBox="0 0 18 20" version="1.1" xmlns="http://www.w3.org/2000/svg" xmlns:xlink="http://www.w3.org/1999/xlink">
    <!-- Generator: sketchtool 55.2 (78181) - https://sketchapp.com -->
    <title>432C6086-3665-469F-AADD-453C803F25D7@1x</title>
    <desc>Created with sketchtool.</desc>
    <defs>
        <path d="M14.1666667,19.2777778 L17.2222222,19.2777778 C17.9279194,19.2777778 18.5,18.7056972 18.5,18 L18.5,8.46676413 L11,2.63343079 L3.5,8.46676413 L3.5,18 C3.5,18.7056972 4.0720806,19.2777778 4.77777778,19.2777778 L7.83333333,19.2777778 L7.83333333,10.8888889 C7.83333333,10.6127465 8.05719096,10.3888889 8.33333333,10.3888889 L13.6666667,10.3888889 C13.942809,10.3888889 14.1666667,10.6127465 14.1666667,10.8888889 L14.1666667,19.2777778 Z M13.1666667,19.2777778 L13.1666667,11.3888889 L8.83333333,11.3888889 L8.83333333,19.2777778 L13.1666667,19.2777778 Z M2.5,8.22222222 C2.5,8.06792701 2.57123642,7.92227421 2.69302969,7.82754611 L10.6930297,1.60532389 C10.8735849,1.46489204 11.1264151,1.46489204 11.3069703,1.60532389 L19.3069703,7.82754611 C19.4287636,7.92227421 19.5,8.06792701 19.5,8.22222222 L19.5,18 C19.5,19.2579819 18.4802042,20.2777778 17.2222222,20.2777778 L4.77777778,20.2777778 C3.51979585,20.2777778 2.5,19.2579819 2.5,18 L2.5,8.22222222 Z" id="path-1"></path>
    </defs>
    <g id="VISUAL-MOCKUPS" stroke="none" stroke-width="1" fill="none" fill-rule="evenodd">
        <g id="Version-4---10.10---UPbook---Home" transform="translate(-20.000000, -142.000000)">
            <g id="menu">
                <g id="menu-/-1---Home-Selected" transform="translate(0.000000, 132.000000)">
                    <g id="icon/home-copy-2" transform="translate(18.000000, 9.000000)">
                        <mask id="mask-2" fill="white">
                            <use xlink:href="#path-1"></use>
                        </mask>
                        <use id="Combined-Shape" fill="#FFFFFF" fill-rule="nonzero" xlink:href="#path-1"></use>
                        <g id="color" mask="url(#mask-2)" fill="#FFFFFF">
                            <rect id="Rectangle" x="0" y="0" width="22" height="22"></rect>
                        </g>
                    </g>
                </g>
            </g>
        </g>
    </g>
</svg>