<?xml version="1.0" encoding="UTF-8"?>
<svg width="18px" height="18px" viewBox="0 0 18 18" version="1.1" xmlns="http://www.w3.org/2000/svg" xmlns:xlink="http://www.w3.org/1999/xlink">
    <!-- Generator: sketchtool 55.2 (78181) - https://sketchapp.com -->
    <title>BA59B8DA-31D9-4012-A092-375A3CBEB496@1x</title>
    <desc>Created with sketchtool.</desc>
    <defs>
        <path d="M16.7142857,17.5714286 C16.7142857,17.8475709 16.4904281,18.0714286 16.2142857,18.0714286 C15.9381433,18.0714286 15.7142857,17.8475709 15.7142857,17.5714286 L15.7142857,9.71428571 C15.7142857,9.43814334 15.9381433,9.21428571 16.2142857,9.21428571 C16.4904281,9.21428571 16.7142857,9.43814334 16.7142857,9.71428571 L16.7142857,17.5714286 Z M12,17.5714286 C12,17.8475709 11.7761424,18.0714286 11.5,18.0714286 C11.2238576,18.0714286 11,17.8475709 11,17.5714286 L11,5 C11,4.72385763 11.2238576,4.5 11.5,4.5 C11.7761424,4.5 12,4.72385763 12,5 L12,17.5714286 Z M7.28571429,17.5714286 C7.28571429,17.8475709 7.06185666,18.0714286 6.78571429,18.0714286 C6.50957191,18.0714286 6.28571429,17.8475709 6.28571429,17.5714286 L6.28571429,12.8571429 C6.28571429,12.5810005 6.50957191,12.3571429 6.78571429,12.3571429 C7.06185666,12.3571429 7.28571429,12.5810005 7.28571429,12.8571429 L7.28571429,17.5714286 Z M3,19.732384 L19.5,19.732384 C19.7761424,19.732384 20,19.9562416 20,20.232384 C20,20.5085263 19.7761424,20.732384 19.5,20.732384 L2,20.732384 L2,4.23238395 C2,3.95624158 2.22385763,3.73238395 2.5,3.73238395 C2.77614237,3.73238395 3,3.95624158 3,4.23238395 L3,19.732384 Z" id="path-1"></path>
    </defs>
    <g id="VISUAL-MOCKUPS" stroke="none" stroke-width="1" fill="none" fill-rule="evenodd" opacity="1">
        <g id="Version-4---10.10---UPbook---Home" transform="translate(-20.000000, -294.000000)">
            <g id="menu">
                <g id="menu-/-4---Statistics" transform="translate(0.000000, 282.000000)">
                    <g id="icon/home-copy-2" transform="translate(18.000000, 9.000000)">
                        <mask id="mask-2" fill="white">
                            <use xlink:href="#path-1"></use>
                        </mask>
                        <use id="Combined-Shape" fill="#FFFFFF" fill-rule="nonzero" xlink:href="#path-1"></use>
                        <g id="color" mask="url(#mask-2)" fill="#FFFFFF">
                            <rect id="Rectangle" x="0" y="0" width="22" height="22"></rect>
                        </g>
                    </g>
                </g>
            </g>
        </g>
    </g>
</svg>
