<?xml version="1.0" encoding="UTF-8"?>
<svg width="14px" height="21px" viewBox="0 0 14 21" version="1.1" xmlns="http://www.w3.org/2000/svg" xmlns:xlink="http://www.w3.org/1999/xlink">
    <!-- Generator: sketchtool 55.2 (78181) - https://sketchapp.com -->
    <title>7A92EF62-19B7-4FBB-85D3-5BB76F50832C@1x</title>
    <desc>Created with sketchtool.</desc>
    <defs>
        <path d="M13.8507476,13.8431456 C12.9900203,14.2638638 12.0225864,14.5 11,14.5 C9.97779697,14.5 9.01070514,14.2640409 8.15022061,13.8436187 L7.34650755,19.8947146 L10.7427521,17.8569678 C10.9010933,17.7619631 11.0989067,17.7619631 11.2572479,17.8569678 L14.6536551,19.8948122 L13.8507476,13.8431456 Z M14.785407,13.2846127 L15.7813709,20.7913814 C15.8364383,21.2064356 15.3874912,21.5013042 15.0284664,21.2858893 L11,18.8688095 L6.97153359,21.2858893 C6.61248023,21.5013213 6.16350729,21.2063898 6.21863856,20.7913105 L7.21559112,13.2853288 C5.57124377,12.1058484 4.5,10.1780254 4.5,8 C4.5,4.41014913 7.41014913,1.5 11,1.5 C14.5898509,1.5 17.5,4.41014913 17.5,8 C17.5,10.1775847 16.4291897,12.1050682 14.785407,13.2846127 Z M14.0337557,12.5883486 C15.519962,11.6037122 16.5,9.91630619 16.5,8 C16.5,4.96243388 14.0375661,2.5 11,2.5 C7.96243388,2.5 5.5,4.96243388 5.5,8 C5.5,11.0375661 7.96243388,13.5 11,13.5 C12.0752057,13.5 13.0783506,13.1914708 13.9257321,12.658115 C13.9582677,12.6305574 13.9944999,12.6070089 14.0337557,12.5883486 Z" id="path-1"></path>
    </defs>
    <g id="VISUAL-MOCKUPS" stroke="none" stroke-width="1" fill="none" fill-rule="evenodd" opacity="1">
        <g id="Version-4---10.10---UPbook---Home" transform="translate(-22.000000, -242.000000)">
            <g id="menu">
                <g id="menu-/-3---Rewards" transform="translate(0.000000, 232.000000)">
                    <g id="icon/home-copy-2" transform="translate(18.000000, 9.000000)">
                        <mask id="mask-2" fill="white">
                            <use xlink:href="#path-1"></use>
                        </mask>
                        <use id="Combined-Shape" fill="#FFFFFF" fill-rule="nonzero" xlink:href="#path-1"></use>
                        <g id="color" mask="url(#mask-2)" fill="#FFFFFF">
                            <rect id="Rectangle" x="0" y="0" width="22" height="22"></rect>
                        </g>
                    </g>
                </g>
            </g>
        </g>
    </g>
</svg>
