<?xml version="1.0" encoding="UTF-8"?>
<svg width="18px" height="14px" viewBox="0 0 18 14" version="1.1" xmlns="http://www.w3.org/2000/svg" xmlns:xlink="http://www.w3.org/1999/xlink">
    <!-- Generator: sketchtool 55.2 (78181) - https://sketchapp.com -->
    <title>9DDC3074-020C-4A70-8023-206902E4A352@1x</title>
    <desc>Created with sketchtool.</desc>
    <defs>
        <path d="M4.6381205,10.5 L19.4834097,10.5 C19.759552,10.5 19.9834097,10.7238576 19.9834097,11 C19.9834097,11.2761424 19.759552,11.5 19.4834097,11.5 L4.3381205,11.5 L9.50355339,16.6654329 C9.69881554,16.860695 9.69881554,17.1772775 9.50355339,17.3725397 C9.30829124,17.5678018 8.99170876,17.5678018 8.79644661,17.3725397 L2.92746033,11.5035534 C2.73219818,11.3082912 2.73219818,10.9917088 2.92746033,10.7964466 L8.79644661,4.92746033 C8.99170876,4.73219818 9.30829124,4.73219818 9.50355339,4.92746033 C9.69881554,5.12272247 9.69881554,5.43930496 9.50355339,5.63456711 L4.6381205,10.5 Z" id="path-1"></path>
    </defs>
    <g id="VISUAL-MOCKUPS" stroke="none" stroke-width="1" fill="none" fill-rule="evenodd">
        <g id="30.20---Gift-Card-Detail" transform="translate(-176.000000, -23.000000)">
            <g id="menu-/-back-to-copy" transform="translate(157.000000, 1.000000)">
                <g id="icon/arrow-left-white" transform="translate(17.000000, 18.000000)">
                    <mask id="mask-2" fill="white">
                        <use xlink:href="#path-1"></use>
                    </mask>
                    <use id="Combined-Shape" fill="#062037" fill-rule="nonzero" xlink:href="#path-1"></use>
                    <g id="color" mask="url(#mask-2)" fill="#062037">
                        <rect id="Rectangle" x="0" y="0" width="22" height="22"></rect>
                    </g>
                </g>
            </g>
        </g>
    </g>
</svg>