<?xml version="1.0" encoding="UTF-8"?>
<svg width="15px" height="18px" viewBox="0 0 15 18" version="1.1" xmlns="http://www.w3.org/2000/svg"
     xmlns:xlink="http://www.w3.org/1999/xlink">
  <!-- Generator: sketchtool 55.2 (78181) - https://sketchapp.com -->
  <title>A5DEBFA9-E866-4403-9815-0DEF36E65430@1x</title>
  <desc>Created with sketchtool.</desc>
  <defs>
    <path
      d="M9,8.25 L10.25,8.25 L10.25,15.75 L9,15.75 L9,8.25 Z M12.75,8.25 L14,8.25 L14,15.75 L12.75,15.75 L12.75,8.25 Z M4,4.5 L4,5.75 L5.25,5.75 L5.25,18.25 C5.25,18.9403559 5.80964406,19.5 6.5,19.5 L16.5,19.5 C17.1903559,19.5 17.75,18.9403559 17.75,18.25 L17.75,5.75 L19,5.75 L19,4.5 L4,4.5 Z M6.5,18.25 L6.5,5.75 L16.5,5.75 L16.5,18.25 L6.5,18.25 Z M9,2 L14,2 L14,3.25 L9,3.25 L9,2 Z"
      id="path-1"></path>
  </defs>
  <g id="VISUAL-MOCKUPS" stroke="none" stroke-width="1" fill="none" fill-rule="evenodd">
    <g id="50.40---All-Alerts" transform="translate(-1374.000000, -583.000000)">
      <g id="Group" transform="translate(158.000000, 230.000000)">
        <g id="table-/-row-8-copy-3" transform="translate(0.000000, 332.000000)">
          <g id="Group-6" transform="translate(1124.000000, 19.000000)">
            <g id="icon/delete" transform="translate(88.000000, 0.000000)">
              <mask id="mask-2" fill="white">
                <use xlink:href="#path-1"></use>
              </mask>
              <use id="icon-color" fill="#455E75" xlink:href="#path-1"></use>
              <g id="color" mask="url(#mask-2)" fill="#455E75">
                <rect id="Rectangle" x="0" y="0" width="22" height="22"></rect>
              </g>
            </g>
          </g>
        </g>
      </g>
    </g>
  </g>
</svg>
