<?xml version="1.0" encoding="UTF-8"?>
<svg width="100px" height="100px" viewBox="0 0 100 100" version="1.1" xmlns="http://www.w3.org/2000/svg" xmlns:xlink="http://www.w3.org/1999/xlink">
    <!-- Generator: Sketch 57.1 (83088) - https://sketch.com -->
    <title>icon/checkmark@1x</title>
    <desc>Created with Sketch.</desc>
    <defs>
        <path d="M50,0 C77.6142375,0 100,22.3857625 100,50 C100,77.6142375 77.6142375,100 50,100 C22.3857625,100 0,77.6142375 0,50 C0,22.3857625 22.3857625,0 50,0 Z M76.1144275,31.002736 L42.1731646,69.1374146 L25.0606602,52.0249102 C24.4748737,51.4391238 23.5251263,51.4391238 22.9393398,52.0249102 C22.3535534,52.6106967 22.3535534,53.5604441 22.9393398,54.1462306 L41.1760078,72.3828986 C41.7860137,72.9929045 42.7835976,72.963909 43.3571431,72.3195024 L78.3553778,32.997264 C78.9061514,32.3784426 78.8509879,31.4302985 78.2321666,30.8795249 C77.6133453,30.3287512 76.6652012,30.3839147 76.1144275,31.002736 Z" id="path-1"></path>
    </defs>
    <g id="VISUAL-MOCKUPS" stroke="none" stroke-width="1" fill="none" fill-rule="evenodd">
        <g id="Version-5----30.20---Gift-Card-Detail-Copy" transform="translate(-744.000000, -151.000000)">
            <g id="SUCCESS-CONFIRMATION" transform="translate(469.000000, 98.000000)">
                <g id="icon/checkmark" transform="translate(275.000000, 53.000000)">
                    <mask id="mask-2" fill="white">
                        <use xlink:href="#path-1"></use>
                    </mask>
                    <use id="Combined-Shape" fill="#8CD211" fill-rule="evenodd" xlink:href="#path-1"></use>
                    <g id="color-/-Primary-Green-#75C78A" mask="url(#mask-2)" fill="#75C78A" fill-rule="evenodd">
                        <rect id="Rectangle" x="0" y="0" width="100" height="100"></rect>
                    </g>
                </g>
            </g>
        </g>
    </g>
</svg>