<?xml version="1.0" encoding="UTF-8"?>
<svg width="20px" height="21px" viewBox="0 0 20 21" version="1.1" xmlns="http://www.w3.org/2000/svg" xmlns:xlink="http://www.w3.org/1999/xlink">
  <!-- Generator: Sketch 59.1 (86144) - https://sketch.com -->
  <title>icon/home copy 2@1x</title>
  <desc>Created with Sketch.</desc>
  <defs>
    <path d="M11,1.5 C16.5228475,1.5 21,5.9771525 21,11.5 C21,17.0228475 16.5228475,21.5 11,21.5 C5.4771525,21.5 1,17.0228475 1,11.5 C1,5.9771525 5.4771525,1.5 11,1.5 Z M10.8095238,14.9047619 C10.1783412,14.9047619 9.66666667,15.4164364 9.66666667,16.047619 C9.66666667,16.6788017 10.1783412,17.1904762 10.8095238,17.1904762 C11.4407064,17.1904762 11.952381,16.6788017 11.952381,16.047619 C11.952381,15.4164364 11.4407064,14.9047619 10.8095238,14.9047619 Z M10.4285714,5 L10.4285714,5 L10.2394074,5.00503704 C8.42391534,5.10201058 7,6.58730159 7,8.42857143 L7,8.42857143 L7,8.80952381 L8.52380952,8.80952381 L8.52380952,8.42857143 L8.52944504,8.2778112 C8.60414642,7.28398661 9.41269841,6.52380952 10.4285714,6.52380952 L10.4285714,6.52380952 L11.5714286,6.52380952 L11.7221888,6.52944504 C12.7160134,6.60414642 13.4761905,7.41269841 13.4761905,8.42857143 C13.4761905,9.4952381 12.6380952,10.3333333 11.5714286,10.3333333 L11.5714286,10.3333333 L10.047619,10.3333333 L10.047619,13.3809524 L11.5714286,13.3809524 L11.5714286,11.8571429 L11.7605926,11.8521058 C13.5760847,11.7551323 15,10.2698413 15,8.42857143 C15,6.52380952 13.4761905,5 11.5714286,5 L11.5714286,5 Z" id="path-1"></path>
  </defs>
  <g id="Symbols" stroke="none" stroke-width="1" fill="none" fill-rule="evenodd">
    <g id="menu-/-7---Help-Copy" transform="translate(-19.000000, -10.000000)">
      <g id="icon/help" transform="translate(18.000000, 9.000000)">
        <mask id="mask-2" fill="white">
          <use xlink:href="#path-1"></use>
        </mask>
        <use id="Combined-Shape" fill="#FFFFFF" fill-rule="nonzero" xlink:href="#path-1"></use>
        <g id="color-/-Green-Secondary-#B2DD4C" mask="url(#mask-2)" fill="#B2DD4C" fill-rule="evenodd">
          <rect id="Rectangle" x="0" y="0" width="22" height="22"></rect>
        </g>
      </g>
    </g>
  </g>
</svg>
