<?xml version="1.0" encoding="UTF-8"?>
<svg width="18px" height="18px" viewBox="0 0 18 18" version="1.1" xmlns="http://www.w3.org/2000/svg" xmlns:xlink="http://www.w3.org/1999/xlink">
    <!-- Generator: sketchtool 55.2 (78181) - https://sketchapp.com -->
    <title>ABDF087A-3F9A-46C1-8DBA-5F7DB284FBD0@1x</title>
    <desc>Created with sketchtool.</desc>
    <defs>
        <path d="M11,13.6818182 C9.51887272,13.6818182 8.31818182,12.4811273 8.31818182,11 C8.31818182,9.51887272 9.51887272,8.31818182 11,8.31818182 C12.4811273,8.31818182 13.6818182,9.51887272 13.6818182,11 C13.6818182,12.4811273 12.4811273,13.6818182 11,13.6818182 Z M11,12.6818182 C11.9288425,12.6818182 12.6818182,11.9288425 12.6818182,11 C12.6818182,10.0711575 11.9288425,9.31818182 11,9.31818182 C10.0711575,9.31818182 9.31818182,10.0711575 9.31818182,11 C9.31818182,11.9288425 10.0711575,12.6818182 11,12.6818182 Z M17.4218182,9.04545455 L17.5454545,9.04545455 C18.6249202,9.04545455 19.5,9.92053435 19.5,11 C19.5,12.0794656 18.6249202,12.9545455 17.5454545,12.9545455 L17.4819942,12.9545415 C17.2029941,12.9556542 16.9512959,13.1223418 16.8413881,13.3787839 C16.7237086,13.6454966 16.7791488,13.951258 16.9753716,14.1519012 L17.0188112,14.1953409 C17.38583,14.5619516 17.5920533,15.0594274 17.5920533,15.5781818 C17.5920533,16.0969363 17.38583,16.594412 17.0192045,16.9606294 C16.6525939,17.3276482 16.1551181,17.5338715 15.6363636,17.5338715 C15.1176092,17.5338715 14.6201334,17.3276482 14.2537193,16.9608261 L14.2140039,16.9210677 C14.0094398,16.720967 13.7036785,16.6655267 13.4369657,16.7832063 C13.1805236,16.893114 13.013836,17.1448123 13.0127273,17.4218182 L13.0127273,17.5454545 C13.0127273,18.6249202 12.1376475,19.5 11.0581818,19.5 C9.97871617,19.5 9.10363636,18.6249202 9.10363636,17.5454545 L9.10377309,17.4916923 C9.09705165,17.2043405 8.91535506,16.9503018 8.61629915,16.8392495 C8.35450336,16.7237086 8.048742,16.7791488 7.84809885,16.9753716 L7.80465909,17.0188112 C7.43804841,17.38583 6.94057262,17.5920533 6.42181818,17.5920533 C5.90306374,17.5920533 5.40558796,17.38583 5.0393706,17.0192045 C4.67235184,16.6525939 4.4661285,16.1551181 4.4661285,15.6363636 C4.4661285,15.1176092 4.67235184,14.6201334 5.03917388,14.2537193 L5.07893234,14.2140039 C5.27903302,14.0094398 5.33447327,13.7036785 5.21679372,13.4369657 C5.10688597,13.1805236 4.85518769,13.013836 4.57818182,13.0127273 L4.45454545,13.0127273 C3.37507981,13.0127273 2.5,12.1376475 2.5,11.0581818 C2.5,9.97871617 3.37507981,9.10363636 4.45454545,9.10363636 L4.50830771,9.10377309 C4.79565948,9.09705165 5.04969824,8.91535506 5.16075053,8.61629915 C5.27629145,8.35450336 5.2208512,8.048742 5.02462843,7.84809885 L4.98118878,7.80465909 C4.61417002,7.43804841 4.40794668,6.94057262 4.40794668,6.42181818 C4.40794668,5.90306374 4.61417002,5.40558796 4.98079545,5.0393706 C5.34740614,4.67235184 5.84488192,4.4661285 6.36363636,4.4661285 C6.8823908,4.4661285 7.37986659,4.67235184 7.74628066,5.03917388 L7.78599612,5.07893234 C7.99056019,5.27903302 8.29632154,5.33447327 8.55811733,5.21893234 L8.66441408,5.19651876 C8.89622286,5.0779487 9.04440933,4.83931003 9.04545455,4.57818182 L9.04545455,4.45454545 C9.04545455,3.37507981 9.92053435,2.5 11,2.5 C12.0794656,2.5 12.9545455,3.37507981 12.9545455,4.45454545 L12.9545415,4.51800584 C12.9556542,4.79700587 13.1223418,5.04870415 13.3837009,5.16075053 C13.6454966,5.27629145 13.951258,5.2208512 14.1519012,5.02462843 L14.1953409,4.98118878 C14.5619516,4.61417002 15.0594274,4.40794668 15.5781818,4.40794668 C16.0969363,4.40794668 16.594412,4.61417002 16.9606294,4.98079545 C17.3276482,5.34740614 17.5338715,5.84488192 17.5338715,6.36363636 C17.5338715,6.8823908 17.3276482,7.37986659 16.9608261,7.74628066 L16.9210677,7.78599612 C16.720967,7.99056019 16.6655267,8.29632154 16.7810677,8.55811733 L16.8034812,8.66441408 C16.9220513,8.89622286 17.16069,9.04440933 17.4218182,9.04545455 Z M17.48,11.9545455 L17.5454545,11.9545455 C18.0726354,11.9545455 18.5,11.5271809 18.5,11 C18.5,10.4728191 18.0726354,10.0454545 17.5454545,10.0454545 L17.419824,10.0454506 C16.7422525,10.0427482 16.1309853,9.63793544 15.8640665,9.01514754 L15.8405379,8.90052188 C15.5945877,8.2788101 15.7359232,7.56750441 16.210083,7.08281025 L16.2539161,7.03897727 C16.4331578,6.85993485 16.5338715,6.61698156 16.5338715,6.36363636 C16.5338715,6.11029117 16.4331578,5.86733788 16.2535227,5.68790213 C16.0744803,5.5086604 15.831527,5.40794668 15.5781818,5.40794668 C15.3248366,5.40794668 15.0818833,5.5086604 14.9026443,5.68809885 L14.855087,5.73561311 C14.3582886,6.22157189 13.6157253,6.35621249 12.9848525,6.07775173 C12.3620646,5.81083289 11.9572518,5.19956565 11.9545455,4.52 L11.9545455,4.45454545 C11.9545455,3.92736456 11.5271809,3.5 11,3.5 C10.4728191,3.5 10.0454545,3.92736456 10.0454545,4.45454545 L10.0454506,4.58017597 C10.0427482,5.25774747 9.63793544,5.86901471 9.01514754,6.13593355 L8.90052188,6.15946214 C8.2788101,6.40541232 7.56750441,6.26407681 7.08281025,5.78991703 L7.03897727,5.74608394 C6.85993485,5.56684222 6.61698156,5.4661285 6.36363636,5.4661285 C6.11029117,5.4661285 5.86733788,5.56684222 5.68790213,5.74647727 C5.5086604,5.9255197 5.40794668,6.16847299 5.40794668,6.42181818 C5.40794668,6.67516337 5.5086604,6.91811666 5.68809885,7.0973557 L5.73561311,7.14491297 C6.22157189,7.64171143 6.35621249,8.38427472 6.08744987,8.99077236 C5.84649787,9.64591297 5.2295466,10.0871761 4.52,10.1036364 L4.45454545,10.1036364 C3.92736456,10.1036364 3.5,10.5310009 3.5,11.0581818 C3.5,11.5853627 3.92736456,12.0127273 4.45454545,12.0127273 L4.58017597,12.0127312 C5.25774747,12.0154336 5.86901471,12.4202464 6.13379493,13.0381173 C6.41439431,13.6739071 6.27975371,14.4164704 5.78991703,14.9171898 L5.74608394,14.9610227 C5.56684222,15.1400652 5.4661285,15.3830184 5.4661285,15.6363636 C5.4661285,15.8897088 5.56684222,16.1326621 5.74647727,16.3120979 C5.9255197,16.4913396 6.16847299,16.5920533 6.42181818,16.5920533 C6.67516337,16.5920533 6.91811666,16.4913396 7.0973557,16.3119012 L7.14491297,16.2643869 C7.64171143,15.7784281 8.38427472,15.6437875 8.99077236,15.9125501 C9.64591297,16.1535021 10.0871761,16.7704534 10.1036364,17.48 L10.1036364,17.5454545 C10.1036364,18.0726354 10.5310009,18.5 11.0581818,18.5 C11.5853627,18.5 12.0127273,18.0726354 12.0127273,17.5454545 L12.0127312,17.419824 C12.0154336,16.7422525 12.4202464,16.1309853 13.0381173,15.8662051 C13.6739071,15.5856057 14.4164704,15.7202463 14.9171898,16.210083 L14.9610227,16.2539161 C15.1400652,16.4331578 15.3830184,16.5338715 15.6363636,16.5338715 C15.8897088,16.5338715 16.1326621,16.4331578 16.3120979,16.2535227 C16.4913396,16.0744803 16.5920533,15.831527 16.5920533,15.5781818 C16.5920533,15.3248366 16.4913396,15.0818833 16.3119012,14.9026443 L16.2643869,14.855087 C15.7790532,14.3589276 15.6441345,13.6176351 15.9233062,12.9823894 C16.19078,12.3609972 16.8013308,11.9572482 17.48,11.9545455 Z" id="path-1"></path>
    </defs>
    <g id="VISUAL-MOCKUPS" stroke="none" stroke-width="1" fill="none" fill-rule="evenodd" opacity="1">
        <g id="Version-4---10.10---UPbook---Home" transform="translate(-20.000000, -1253.000000)">
            <g id="menu">
                <g id="menu-/-6---Settings" transform="translate(0.000000, 1242.000000)">
                    <g id="icon/home-copy-2" transform="translate(18.000000, 9.000000)">
                        <mask id="mask-2" fill="white">
                            <use xlink:href="#path-1"></use>
                        </mask>
                        <use id="Combined-Shape" fill="#FFFFFF" fill-rule="nonzero" xlink:href="#path-1"></use>
                        <g id="color" mask="url(#mask-2)" fill="#FFFFFF">
                            <rect id="Rectangle" x="0" y="0" width="22" height="22"></rect>
                        </g>
                    </g>
                </g>
            </g>
        </g>
    </g>
</svg>
