<?xml version="1.0" encoding="UTF-8"?>
<svg width="20px" height="21px" viewBox="0 0 20 21" version="1.1" xmlns="http://www.w3.org/2000/svg" xmlns:xlink="http://www.w3.org/1999/xlink">
    <!-- Generator: sketchtool 55.2 (78181) - https://sketchapp.com -->
    <title>A86ED54C-9AD5-4250-991D-6A2BF08AFDFB@1x</title>
    <desc>Created with sketchtool.</desc>
    <defs>
        <path d="M11,21.5 C5.4771525,21.5 1,17.0228475 1,11.5 C1,5.9771525 5.4771525,1.5 11,1.5 C16.5228475,1.5 21,5.9771525 21,11.5 C21,17.0228475 16.5228475,21.5 11,21.5 Z M11,20.5 C15.9705627,20.5 20,16.4705627 20,11.5 C20,6.52943725 15.9705627,2.5 11,2.5 C6.02943725,2.5 2,6.52943725 2,11.5 C2,16.4705627 6.02943725,20.5 11,20.5 Z M8.6,7.7 C8.6,7.30065231 9.04507273,7.06245661 9.3773501,7.28397485 L15.0773501,11.0839749 C15.3742166,11.2818859 15.3742166,11.7181141 15.0773501,11.9160251 L9.3773501,15.7160251 C9.04507273,15.9375434 8.6,15.6993477 8.6,15.3 L8.6,7.7 Z M9.6,8.63425855 L9.6,14.3657415 L13.8986122,11.5 L9.6,8.63425855 Z" id="path-1"></path>
    </defs>
    <g id="VISUAL-MOCKUPS" stroke="none" stroke-width="1" fill="none" fill-rule="evenodd" opacity="1">
        <g id="Version-4---10.10---UPbook---Home" transform="translate(-19.000000, -192.000000)">
            <g id="menu">
                <g id="menu-/-2---Recordings" transform="translate(0.000000, 182.000000)">
                    <g id="icon/home-copy-2" transform="translate(18.000000, 9.000000)">
                        <mask id="mask-2" fill="white">
                            <use xlink:href="#path-1"></use>
                        </mask>
                        <use id="Combined-Shape" fill="#FFFFFF" fill-rule="nonzero" xlink:href="#path-1"></use>
                        <g id="color" mask="url(#mask-2)" fill="#FFFFFF">
                            <rect id="Rectangle" x="0" y="0" width="22" height="22"></rect>
                        </g>
                    </g>
                </g>
            </g>
        </g>
    </g>
</svg>
