<?xml version="1.0" encoding="UTF-8"?>
<svg width="12px" height="20px" viewBox="0 0 12 20" version="1.1" xmlns="http://www.w3.org/2000/svg" xmlns:xlink="http://www.w3.org/1999/xlink">
    <!-- Generator: sketchtool 56.3 (101010) - https://sketch.com -->
    <title>AA883E7D-6ED4-4355-BF0D-ED2C29E38783@1x</title>
    <desc>Created with sketchtool.</desc>
    <defs>
        <path d="M11.5,4.83333333 L15.1666667,4.83333333 C15.442809,4.83333333 15.6666667,5.05719096 15.6666667,5.33333333 C15.6666667,5.60947571 15.442809,5.83333333 15.1666667,5.83333333 L11.5,5.83333333 L11.5,10.6666667 L13.0833333,10.6666667 C14.9703062,10.6666667 16.5,12.1963605 16.5,14.0833333 C16.5,15.9703062 14.9703062,17.5 13.0833333,17.5 L11.5,17.5 L11.5,20.3333333 C11.5,20.6094757 11.2761424,20.8333333 11,20.8333333 C10.7238576,20.8333333 10.5,20.6094757 10.5,20.3333333 L10.5,17.5 L6,17.5 C5.72385763,17.5 5.5,17.2761424 5.5,17 C5.5,16.7238576 5.72385763,16.5 6,16.5 L10.5,16.5 L10.5,11.6666667 L8.91666667,11.6666667 C7.02969377,11.6666667 5.5,10.1369729 5.5,8.25 C5.5,6.3630271 7.02969377,4.83333333 8.91666667,4.83333333 L10.5,4.83333333 L10.5,2 C10.5,1.72385763 10.7238576,1.5 11,1.5 C11.2761424,1.5 11.5,1.72385763 11.5,2 L11.5,4.83333333 Z M11.5,11.6666667 L11.5,16.5 L13.0833333,16.5 C14.4180215,16.5 15.5,15.4180215 15.5,14.0833333 C15.5,12.7486452 14.4180215,11.6666667 13.0833333,11.6666667 L11.5,11.6666667 Z M10.5,10.6666667 L10.5,5.83333333 L8.91666667,5.83333333 C7.58197852,5.83333333 6.5,6.91531185 6.5,8.25 C6.5,9.58468815 7.58197852,10.6666667 8.91666667,10.6666667 L10.5,10.6666667 Z" id="path-1"></path>
    </defs>
    <g id="VISUAL-MOCKUPS" stroke="none" stroke-width="1" fill="none" fill-rule="evenodd">
        <g id="Version-5----50.10---Business-ROI" transform="translate(-23.000000, -342.000000)">
            <g id="menu/nav-light-2">
                <g id="menu-/-5---Executive" transform="translate(0.000000, 332.000000)">
                    <g id="icon/home-copy-2" transform="translate(18.000000, 9.000000)">
                        <mask id="mask-2" fill="white">
                            <use xlink:href="#path-1"></use>
                        </mask>
                        <use id="Combined-Shape" fill="#FFFFFF" fill-rule="nonzero" xlink:href="#path-1"></use>
                        <g id="color" mask="url(#mask-2)" fill="#FFFFFF">
                            <rect id="Rectangle" x="0" y="0" width="22" height="22"></rect>
                        </g>
                    </g>
                </g>
            </g>
        </g>
    </g>
</svg>