<?xml version="1.0" encoding="UTF-8"?>
<svg width="18px" height="18px" viewBox="0 0 22 22" version="1.1" xmlns="http://www.w3.org/2000/svg" xmlns:xlink="http://www.w3.org/1999/xlink">
  <!-- Generator: sketchtool 55.2 (78181) - https://sketchapp.com -->
  <title>32CFDAE1-DC30-4E74-85D3-FD4683CF1176@1x</title>
  <desc>Created with sketchtool.</desc>
  <defs>
    <path d="M16.5474679,18.7129151 C16.5170218,18.6483174 16.5,18.5761465 16.5,18.5 L16.5,17 C16.5,15.6192881 15.3807119,14.5 14,14.5 L8,14.5 C6.61928813,14.5 5.5,15.6192881 5.5,17 L5.5,18.5 C5.5,18.5761465 5.48297819,18.6483174 5.45253205,18.7129151 C7.01335803,19.8375068 8.92931223,20.5 11,20.5 C13.0706878,20.5 14.986642,19.8375068 16.5474679,18.7129151 Z M4.5,17.9282444 L4.5,17 C4.5,15.0670034 6.06700338,13.5 8,13.5 L14,13.5 C15.9329966,13.5 17.5,15.0670034 17.5,17 L17.5,17.9282444 C19.3465394,16.195156 20.5,13.7322806 20.5,11 C20.5,5.75329488 16.2467051,1.5 11,1.5 C5.75329488,1.5 1.5,5.75329488 1.5,11 C1.5,13.7322806 2.6534606,16.195156 4.5,17.9282444 Z M11,11.5 C9.06700338,11.5 7.5,9.93299662 7.5,8 C7.5,6.06700338 9.06700338,4.5 11,4.5 C12.9329966,4.5 14.5,6.06700338 14.5,8 C14.5,9.93299662 12.9329966,11.5 11,11.5 Z M11,10.5 C12.3807119,10.5 13.5,9.38071187 13.5,8 C13.5,6.61928813 12.3807119,5.5 11,5.5 C9.61928813,5.5 8.5,6.61928813 8.5,8 C8.5,9.38071187 9.61928813,10.5 11,10.5 Z M11,21.5 C5.20101013,21.5 0.5,16.7989899 0.5,11 C0.5,5.20101013 5.20101013,0.5 11,0.5 C16.7989899,0.5 21.5,5.20101013 21.5,11 C21.5,16.7989899 16.7989899,21.5 11,21.5 Z" id="path-1"></path>
  </defs>
  <g id="VISUAL-MOCKUPS" stroke="none" stroke-width="1" fill="none" fill-rule="evenodd">
    <g id="Version-4---10.10---UPbook---Home" transform="translate(-1140.000000, -1115.000000)">
      <g id="RIGHT-BAR" transform="translate(1115.000000, 535.000000)">
        <g id="MOST-IMPROVED" transform="translate(0.000000, 515.000000)">
          <g id="icon/user/avatar/24" transform="translate(25.000000, 65.000000)">
            <g id="icon/user">
              <mask id="mask-2" fill="white">
                <use xlink:href="#path-1"></use>
              </mask>
              <use id="Combined-Shape" fill="#9BA6AF" fill-rule="nonzero" xlink:href="#path-1"></use>
              <g id="color" mask="url(#mask-2)" fill="#C4CDD5">
                <rect id="Rectangle" x="0" y="0" width="22" height="22"></rect>
              </g>
            </g>
          </g>
        </g>
      </g>
    </g>
  </g>
</svg>
