<?xml version="1.0" encoding="UTF-8"?>
<svg
  width="792"
  height="145"
  viewBox="0 0 792 145"
  version="1.1"
  xmlns="http://www.w3.org/2000/svg"
  xmlns:xlink="http://www.w3.org/1999/xlink"
>
  <g id="VISUAL-MOCKUPSBackground-Wave" stroke="none" stroke-width="1" fill="none" fill-rule="evenodd">
    <g id="Weekly-Report---7" transform="translate(0.000000, -467.000000)" fill="#EAF5F6" fill-rule="nonzero">
      <g
        id="Background-Wave"
        transform="translate(395.890016, 538.117476) scale(1, -1) translate(-395.890016, -538.117476) translate(-0.609984, 463.617476)"
      >
        <path
          d="M717.84612,87.1320429 C642.988183,65.3923226 568.204015,41.8367029 484.346329,31.9287019 C440.136339,26.7079912 386.478581,26.2578592 355.308315,42.2736536 C337.681789,51.3304518 323.988389,68.6198812 308.471034,87.0639467 C284.468139,115.594 233.198859,139.656932 172.799535,144.559861 C111.51499,149.530885 50.7978944,134.634836 -0.919452221,117.037636 C-33.0143954,106.113866 -64.0028121,93.86222 -97,83.7726291 L-97,51.3304518 C-57.7154718,61.0909109 -18.7600642,71.5607058 23.4184564,77.2751141 C68.0880804,83.3016302 117.898797,83.432148 158.130966,71.8047173 C201.756482,59.195566 227.39385,35.0554536 246.085637,11.2501477 C264.777423,-12.5551582 279.3552,-37.8245329 310.093939,-58.0831603 C316.931834,-62.5470952 324.072517,-66.5290224 331.464087,-70 L1018.71919,-70 L1018.71919,150.438835 C992.684606,147.924949 966.945097,144.508789 941.767363,140.383292 C863.243703,127.51878 789.566061,107.958139 717.84612,87.1320429 Z"
          id="PathBackgroundWave"
        ></path>
        <path
          d="M310.358551,-58.0891562 C279.599832,-37.8310749 264.995545,-12.5907541 246.297287,11.21391 C227.599029,35.018574 201.950675,59.1580355 158.285445,71.7668469 C118.038481,83.3939641 68.195388,83.2634498 23.4967287,77.2654689 C-18.7092081,71.5909364 -57.7012931,61.1100747 -97,51.3498787 L-97,-70 L331.74259,-70 C324.346377,-66.5309479 317.201056,-62.5510263 310.358551,-58.0891562 Z"
          id="PathBackgroundWave"
        ></path>
      </g>
    </g>
  </g>
</svg>
