<?xml version="1.0" encoding="UTF-8"?>
<svg width="1282px" height="515px" viewBox="0 0 1282 515" version="1.1" xmlns="http://www.w3.org/2000/svg" xmlns:xlink="http://www.w3.org/1999/xlink">
    <!-- Generator: Sketch 56.3 (81716) - https://sketch.com -->
    <title>components / header 01@1x</title>
    <desc>Created with Sketch.</desc>
    <defs>
        <linearGradient x1="0%" y1="58.06879%" x2="100%" y2="41.93121%" id="linearGradient-1">
            <stop stop-color="#FFFFFF" offset="0%"></stop>
            <stop stop-color="#E8E8E8" offset="100%"></stop>
        </linearGradient>
        <rect id="path-2" x="0" y="0" width="1282" height="515"></rect>
    </defs>
    <g id="components-/-header-01" stroke="none" stroke-width="1" fill="none" fill-rule="evenodd">
        <g id="components-/-header">
            <g id="HEADER">
                <mask id="mask-3" fill="white">
                    <use xlink:href="#path-2"></use>
                </mask>
                <use id="Mask-Copy-2" fill="url(#linearGradient-1)" xlink:href="#path-2"></use>
                <rect id="Mask-Copy-3" fill="#4CAF50" mask="url(#mask-3)" x="0" y="0" width="1282" height="515"></rect>
                <g id="Group" mask="url(#mask-3)" fill-rule="nonzero">
                    <g transform="translate(-158.000000, -1.000000)">
                        <rect id="Basic" fill="#FFFFFF" x="0" y="1" width="1806" height="520"></rect>
                        <path d="M1318.98071,254.474849 C1197.80915,219.267441 1076.757,181.119189 941.017669,165.073212 C869.455539,156.618288 785.787275,156.140401 732.145529,181.826829 C692.713335,200.703367 678.779341,229.220357 656.330638,254.364568 C615.144065,300.489857 534.488557,339.538743 436.720964,347.47902 C337.520476,355.529578 239.238511,331.405473 155.524321,302.906863 C103.572658,285.215852 53.4121147,265.37435 0,249.034289 L0,196.494285 C63.58935,212.301318 126.645957,229.257118 194.919774,238.511584 C267.225908,248.271508 347.85386,248.482881 412.977144,229.652294 C483.593195,209.231813 525.092066,170.136977 555.348215,131.584359 C585.604364,93.0317407 609.201221,52.1080678 658.957614,19.2992844 C670.026024,12.0699559 681.584554,5.62123725 693.549191,0 L1806,0 L1806,357 C1763.85816,352.92877 1722.19396,347.396309 1681.43909,340.71508 C1554.33387,319.881043 1435.07284,288.202646 1318.98071,254.474849 Z" id="Path" fill="#94CDD4" opacity="0.2"></path>
                        <path d="M659.385938,19.2895741 C609.597203,52.097473 585.957434,92.9740932 555.69081,131.525672 C525.424186,170.07725 483.907532,209.171032 413.227197,229.590963 C348.079966,248.421042 267.399605,248.209675 195.046473,238.495964 C126.728277,229.306076 63.6123008,212.332354 0,196.525747 L0,0 L694,0 C682.027847,5.61811891 670.46181,12.0635895 659.385938,19.2895741 Z" id="Path" fill="#94CDD4" opacity="0.2"></path>
                    </g>
                </g>
            </g>
        </g>
    </g>
</svg>