<svg xmlns="http://www.w3.org/2000/svg" width="22" height="22" viewBox="0 0 22 22">
    <g fill="#5EA225" fill-rule="nonzero">
        <path d="M11 0C4.935 0 0 4.934 0 11s4.935 11 11 11 11-4.934 11-11S17.065 0 11 0zm0 21.154C5.401 21.154.846 16.599.846 11S5.401.846 11 .846 21.154 5.401 21.154 11 16.599 21.154 11 21.154z"/>
        <path d="M16.25 6.135L9.665 13.05l-3.968-2.962a.45.45 0 0 0-.602.062.382.382 0 0 0 .067.562l4.285 3.2a.448.448 0 0 0 .589-.046l6.857-7.2a.381.381 0 0 0-.036-.565.45.45 0 0 0-.605.034z"/>
    </g>
</svg>
