<svg xmlns="http://www.w3.org/2000/svg" width="22" height="22" viewBox="0 0 22 22">
    <g fill="#ff5d01" fill-rule="nonzero">
        <path d="M11 0C4.935 0 0 4.934 0 11s4.935 11 11 11 11-4.934 11-11S17.065 0 11 0zm0 21.154C5.401 21.154.846 16.599.846 11S5.401.846 11 .846 21.154 5.401 21.154 11 16.599 21.154 11 21.154z"/>
        <path d="M14.75 8.667l2.215-3.61a.237.237 0 0 0 .006-.237.229.229 0 0 0-.2-.12H6.458v-.467A.231.231 0 0 0 6.23 4 .231.231 0 0 0 6 4.233V17.767c0 .129.102.233.23.233.126 0 .228-.104.228-.233v-5.134h10.313c.083 0 .16-.046.2-.12a.237.237 0 0 0-.006-.237l-2.215-3.61zm-8.292 3.5v-7h9.9l-2.073 3.376a.237.237 0 0 0 0 .248l2.072 3.376H6.458z"/>
    </g>
</svg>
