<?xml version="1.0" encoding="UTF-8"?>
<svg width="15px" height="14px" viewBox="0 0 15 14" version="1.1" xmlns="http://www.w3.org/2000/svg" xmlns:xlink="http://www.w3.org/1999/xlink">
    <!-- Generator: Sketch 51.1 (57501) - http://www.bohemiancoding.com/sketch -->
    <title>volume +</title>
    <desc>Created with Sketch.</desc>
    <defs></defs>
    <g id="Page-1" stroke="none" stroke-width="1" fill="none" fill-rule="evenodd">
        <g id="Upbook-UI-v2-call-library-call-details" transform="translate(-858.000000, -333.000000)" fill="#FFFFFF">
            <g id="Group-7" transform="translate(490.000000, 178.000000)">
                <g id="Group-4" transform="translate(20.000000, 150.000000)">
                    <g id="volume-+" transform="translate(348.000000, 5.000000)">
                        <polygon id="Fill-3" points="6.86833 12.15683 2.74743 9.40933 -7.00000001e-05 9.40933 -7.00000001e-05 4.60173 2.74743 4.60173 6.86833 1.85493"></polygon>
                        <path d="M9.61569,7.01673 C9.61569,7.69013 9.37279,8.29073 8.92899,8.73103 L8.92899,10.36973 C10.16239,9.74533 10.98909,8.47063 10.98909,6.99993 C10.98909,5.52643 10.16239,4.25383 8.92899,3.63013 L8.92899,5.30523 C9.37279,5.73993 9.61569,6.34613 9.61569,7.01673" id="Fill-1"></path>
                        <path d="M9.60099,0.19985 C9.38609,0.12285 9.15789,0.05635 8.92899,0.00035 L8.92899,1.38775 C11.33279,2.11785 13.04989,4.35365 13.04989,7.00105 C13.04989,9.64845 11.33279,11.88005 8.92899,12.61645 L8.92899,14.00035 C9.13829,13.95275 9.34339,13.89255 9.54499,13.82185 C12.38069,12.85025 14.42329,10.16575 14.42329,6.99755 C14.42329,3.85175 12.40729,1.18545 9.60099,0.19985" id="Fill-6"></path>
                    </g>
                </g>
            </g>
        </g>
    </g>
</svg>