<svg xmlns="http://www.w3.org/2000/svg" width="15" height="14" viewBox="0 0 15 14">
    <g fill="#FFF" fill-rule="evenodd">
        <path d="M6.868 12.157l-4.12-2.748H0V4.602h2.747l4.121-2.747zM9.616 7.017c0 .673-.243 1.274-.687 1.714v1.639A3.76 3.76 0 0 0 10.989 7a3.757 3.757 0 0 0-2.06-3.37v1.675c.444.435.687 1.041.687 1.712"/>
        <path d="M9.601.2a6.796 6.796 0 0 0-.672-.2v1.388c2.404.73 4.12 2.966 4.12 5.613a5.845 5.845 0 0 1-4.12 5.615V14a7.215 7.215 0 0 0 5.494-7.003A7.206 7.206 0 0 0 9.601.2"/>
    </g>
</svg>
