<svg xmlns="http://www.w3.org/2000/svg" width="29" height="37" viewBox="0 0 29 37">
    <g fill="#64A42B" fill-rule="nonzero">
        <path d="M28.629 16.652l-.446-.617a1.964 1.964 0 0 1-.015-2.28l.438-.626a1.974 1.974 0 0 0-.661-2.852l-.669-.362a1.959 1.959 0 0 1-.988-2.047l.126-.76c.194-1.16-.66-2.228-1.82-2.274l-.758-.03a1.936 1.936 0 0 1-1.768-1.407l-.208-.738a1.919 1.919 0 0 0-2.616-1.25l-.698.302a1.916 1.916 0 0 1-2.2-.49L15.841.65a1.911 1.911 0 0 0-2.89.023l-.498.58a1.921 1.921 0 0 1-2.192.526l-.698-.293c-1.07-.452-2.289.158-2.594 1.287l-.2.738a1.943 1.943 0 0 1-1.746 1.437l-.758.046c-1.16.067-1.999 1.151-1.783 2.303l.133.753a1.966 1.966 0 0 1-.958 2.062l-.661.376a1.966 1.966 0 0 0-.625 2.86l.446.618c.49.677.498 1.596.015 2.28l-.438.626a1.974 1.974 0 0 0 .661 2.852l.669.362c.728.399 1.13 1.22.988 2.047l-.126.76c-.194 1.16.66 2.228 1.82 2.274l.758.03a1.936 1.936 0 0 1 1.768 1.407l.208.738a1.919 1.919 0 0 0 2.616 1.25l.698-.302a1.916 1.916 0 0 1 2.2.49l.505.572a1.911 1.911 0 0 0 2.89-.023l.498-.58a1.921 1.921 0 0 1 2.192-.526l.698.293c1.07.452 2.289-.158 2.594-1.287l.2-.738a1.943 1.943 0 0 1 1.746-1.437l.758-.046c1.16-.067 1.999-1.151 1.783-2.303l-.133-.753a1.966 1.966 0 0 1 .958-2.062l.661-.376c1.018-.565 1.308-1.912.625-2.86zm-14.14 8.13c-5.328 0-9.66-4.389-9.66-9.786 0-5.397 4.332-9.785 9.66-9.785 5.327 0 9.66 4.388 9.66 9.785s-4.333 9.786-9.66 9.786zM25.108 27l-.354.024-.174.627a4.314 4.314 0 0 1-5.792 2.83l-.599-.251-.189.22 2.924 5.291c.173.306.473.526.82.588l3.522.651a1.187 1.187 0 0 0 1.316-.721l1.332-3.309c.134-.329.11-.697-.063-1.003L25.108 27z"/>
        <path d="M11.374 30.43a4.13 4.13 0 0 1-1.688.358c-1.893 0-3.582-1.29-4.106-3.135l-.18-.63L4.776 27l-2.627 4.87c-.172.31-.196.685-.063 1.02l1.322 3.358c.21.533.758.835 1.306.732l3.495-.66c.344-.064.64-.287.813-.598L12 30.207l-.023-.024-.603.247zM20.539 14.862s.578-.873-.17-1.538c-.932-.829-3.468-.276-3.468-.276-.177.03-.362.067-.562.112 0 0-.879.395 0-2.18.878-2.577-.586-2.98-1.203-2.98-.616 0-.408 1.277-.408 1.277s-1.318 3.517-2.574 4.45a2.738 2.738 0 0 0-.609.993 1.149 1.149 0 0 0-.732-.261H9.125c-.624 0-1.125.493-1.125 1.09v4.36C8 20.516 8.509 21 9.125 21h1.688c.231 0 .447-.067.624-.187.039-.037.262-.254.262-.858v-2.71c0 .104.016 3.36 1.95 3.56.694.046 1.549.083 2.404.068.779.06 1.611.067 2.266-.067 2.235-.463 1.68-1.971 1.68-1.971 1.21-.882.524-1.98.524-1.98 1.064-1.082.016-1.993.016-1.993z"/>
    </g>
</svg>
