<svg xmlns="http://www.w3.org/2000/svg" width="41" height="35" viewBox="0 0 41 35">
    <g fill="#64A42B" fill-rule="nonzero">
        <path d="M3 26.87v6.415c0 .39.347.715.784.715h5.432c.428 0 .784-.317.784-.715V22l-3.945 3.602A5.001 5.001 0 0 1 3 26.87zM12 22v12.23c0 .42.347.77.784.77h5.432a.778.778 0 0 0 .784-.77v-7.2a4.778 4.778 0 0 1-3.268-1.364L12 22zM21 26.528v7.725c0 .407.347.747.784.747h5.432c.428 0 .784-.331.784-.747V20l-6.225 5.934a4.63 4.63 0 0 1-.775.594zM36.475 11L30 17.234v17.011c0 .412.347.755.784.755h5.432c.428 0 .784-.334.784-.755V11.472c-.178-.146-.312-.275-.41-.36L36.475 11z"/>
        <path d="M40.651.396C40.407.135 40.036 0 39.564 0h-.134c-2.393.11-4.776.228-7.169.337-.32.017-.758.034-1.103.38-.11.109-.194.235-.261.387-.354.767.143 1.264.379 1.5l.598.606c.413.422.834.843 1.255 1.256L18.675 18.933l-6.495-6.496a2.064 2.064 0 0 0-2.923 0l-8.65 8.645a2.065 2.065 0 0 0 0 2.924l.387.387a2.064 2.064 0 0 0 2.923 0l6.798-6.8 6.494 6.497c.387.388.91.607 1.466.607.556 0 1.07-.22 1.465-.607L36.448 7.777l1.845 1.837c.219.22.522.523.985.523.194 0 .388-.051.59-.16.135-.076.252-.16.354-.262.362-.362.43-.826.446-1.188.067-1.55.143-3.1.219-4.66l.11-2.333c.025-.49-.085-.868-.346-1.138z"/>
    </g>
</svg>
