<svg xmlns="http://www.w3.org/2000/svg" width="22" height="22" viewBox="0 0 22 22">
    <g fill="#7F7F7F" fill-rule="nonzero">
        <path d="M11 0C4.935 0 0 4.934 0 11s4.935 11 11 11 11-4.934 11-11S17.065 0 11 0zm0 21.154C5.401 21.154.846 16.599.846 11S5.401.846 11 .846 21.154 5.401 21.154 11 16.599 21.154 11 21.154z"/>
        <path d="M14.883 7.117a.4.4 0 0 0-.566 0L11 10.434 7.683 7.117a.4.4 0 1 0-.566.566L10.434 11l-3.317 3.317a.4.4 0 1 0 .566.566L11 11.566l3.317 3.317a.399.399 0 0 0 .566 0 .4.4 0 0 0 0-.566L11.566 11l3.317-3.317a.4.4 0 0 0 0-.566z"/>
    </g>
</svg>
