<svg xmlns="http://www.w3.org/2000/svg" width="41" height="65" viewBox="0 0 41 65">
    <g fill="none" fill-rule="nonzero">
        <g fill="#5867DC">
            <path d="M25.62 33.081H15.335C6.886 33.081 0 39.78 0 48h41c-.045-8.177-6.93-14.919-15.38-14.919zM22.323 25.879c.8 0 1.556.262 2.134.742h3.69c1.822-1.876 2.934-4.363 2.934-7.156 0-5.759-4.757-10.384-10.581-10.384S9.92 13.706 9.92 19.465c0 3.883 2.178 7.287 5.423 9.076.356-1.528 1.734-2.662 3.334-2.662h3.646z"/>
            <path d="M4.938 20.683a4.954 4.954 0 0 0 1.413 2.879c.574.575 1.324 1.018 2.163 1.284-.044-.177-.044-.354-.044-.487v-8.592c0-.177 0-.354.044-.532-.839.222-1.545.665-2.163 1.285l-.177.177v-.354c0-.842.088-1.683.22-2.48.133-.842.354-1.64.663-2.392.265-.797.618-1.55 1.06-2.259a12.89 12.89 0 0 1 1.412-2.037.336.336 0 0 0 .089-.177 1.3 1.3 0 0 0 1.06-.355 13.684 13.684 0 0 1 9.712-4.03c3.487 0 7.063 1.329 9.712 4.03.31.31.706.399 1.06.355.044.044.044.133.088.177a12.89 12.89 0 0 1 1.413 2.037c.397.709.75 1.462 1.06 2.259.264.797.485 1.594.661 2.436.133.797.221 1.638.221 2.48v.354c-.044-.088-.132-.133-.177-.177-.573-.576-1.324-1.019-2.163-1.284.044.177.044.354.044.531v8.548c0 .177 0 .354-.044.487.221-.044.442-.133.662-.221v2.79c0 .31-.044.62-.088.841a1.247 1.247 0 0 1-.22.488.96.96 0 0 1-.354.221c-.176.044-.353.089-.574.089h-8.167c-.265-.443-.706-.753-1.28-.753h-3.62c-.795 0-1.413.664-1.413 1.417.044.797.662 1.417 1.457 1.417h3.62c.53 0 1.015-.31 1.28-.753H32.09c.309 0 .574-.088.838-.177.354-.133.619-.31.883-.576.221-.265.398-.575.53-.974.088-.354.177-.797.177-1.284v-3.676l.132-.133a4.954 4.954 0 0 0 1.413-2.88c.044-.043.088-.043.088-.088a.818.818 0 0 0 .221-.531v-3.676c0-.93-.088-1.86-.22-2.746-.266-.93-.486-1.816-.795-2.702a13.19 13.19 0 0 0-1.192-2.524 13.049 13.049 0 0 0-1.59-2.259c-.044-.088-.132-.133-.22-.177A1.352 1.352 0 0 0 32 4.783 16.18 16.18 0 0 0 20.478 0C16.284 0 12.134 1.594 8.91 4.783c-.309.31-.441.797-.353 1.196a.775.775 0 0 0-.22.177 13.049 13.049 0 0 0-1.59 2.259 22.099 22.099 0 0 0-1.192 2.524c-.309.886-.574 1.772-.706 2.702-.177.886-.221 1.816-.221 2.746v3.676c0 .221.088.398.22.531.045.045.09.045.09.089z"/>
        </g>
        <g transform="translate(8 34)">
            <path fill="#F1543F" d="M8.432 6.596h7.94L23.352 0h-7.94z"/>
            <path fill="#F8B64C" d="M17.514 9.894H6.486V5.277h11.028v4.617zm-9.774-1.2h8.52V6.476H7.74v2.218z"/>
            <path fill="#FF7058" d="M16.216 6.596H8.31L1.297 0h7.97z"/>
            <ellipse cx="12" cy="18.798" fill="#FFD15C" rx="12" ry="12.202"/>
            <path fill="#F8B64C" d="M12.324 28.362c-4.994 0-9.08-4.156-9.08-9.234 0-5.079 4.086-9.234 9.08-9.234 4.995 0 9.081 4.155 9.081 9.234 0 5.078-4.086 9.234-9.08 9.234z"/>
            <path fill="#FFD15C" d="M11.676 10.553l1.85 5.528h5.933l-4.848 3.455 1.85 5.528-4.785-3.455-4.785 3.455 1.85-5.528-4.85-3.455h5.934z"/>
        </g>
    </g>
</svg>
