<?xml version="1.0" encoding="UTF-8"?>
<svg width="13px" height="15px" viewBox="0 0 13 15" version="1.1" xmlns="http://www.w3.org/2000/svg" xmlns:xlink="http://www.w3.org/1999/xlink">
  <!-- Generator: sketchtool 55.2 (78181) - https://sketchapp.com -->
  <title>FFF896AC-92F8-4C7F-A26D-872DDDFE1D46@1x</title>
  <desc>Created with sketchtool.</desc>
  <defs>
    <path d="M10.4906606,14.2647729 L10.4906606,4.5 C10.4906606,4.22385763 10.7145182,4 10.9906606,4 C11.2668029,4 11.4906606,4.22385763 11.4906606,4.5 L11.4906606,14.2647729 L15.1869621,10.5684714 C15.3822242,10.3732092 15.6988067,10.3732092 15.8940689,10.5684714 C16.089331,10.7637335 16.089331,11.080316 15.8940689,11.2755782 L11.3442139,15.8254331 C11.1489518,16.0206952 10.8323693,16.0206952 10.6371072,15.8254331 L6.08725226,11.2755782 C5.89199011,11.080316 5.89199011,10.7637335 6.08725226,10.5684714 C6.2825144,10.3732092 6.59909689,10.3732092 6.79435904,10.5684714 L10.4906606,14.2647729 Z M6,17.6302276 L16.0491489,17.6302276 L16.0491489,16 C16.0491489,15.7238576 16.2730065,15.5 16.5491489,15.5 C16.8252913,15.5 17.0491489,15.7238576 17.0491489,16 L17.0491489,18.1302276 C17.0491489,18.4063699 16.8252913,18.6302276 16.5491489,18.6302276 L5.5,18.6302276 C5.22385763,18.6302276 5,18.4063699 5,18.1302276 L5,16 C5,15.7238576 5.22385763,15.5 5.5,15.5 C5.77614237,15.5 6,15.7238576 6,16 L6,17.6302276 Z" id="path-1"></path>
  </defs>
  <g id="VISUAL-MOCKUPS" stroke="none" stroke-width="1" fill="none" fill-rule="evenodd">
    <g id="50.60---Reports" transform="translate(-1287.000000, -696.000000)">
      <g id="Group" transform="translate(158.000000, 230.000000)">
        <g id="table-/-row-8-copy-9" transform="translate(0.000000, 443.000000)">
          <g id="buttons/terciary/normal" transform="translate(1113.000000, 18.000000)">
            <g id="primary">
              <g id="icon/download" transform="translate(11.000000, 1.000000)">
                <mask id="mask-2" fill="white">
                  <use xlink:href="#path-1"></use>
                </mask>
                <use id="Combined-Shape" fill="#979797" fill-rule="nonzero" xlink:href="#path-1"></use>
                <g id="color" mask="url(#mask-2)" fill="#062037">
                  <rect id="Rectangle" x="0" y="0" width="22" height="22"></rect>
                </g>
              </g>
            </g>
          </g>
        </g>
      </g>
    </g>
  </g>
</svg>
