<?xml version="1.0" encoding="UTF-8"?>
<svg width="14px" height="17px" viewBox="0 0 14 17" version="1.1" xmlns="http://www.w3.org/2000/svg" xmlns:xlink="http://www.w3.org/1999/xlink">
  <!-- Generator: sketchtool 55.2 (78181) - https://sketchapp.com -->
  <title>A4CE24F1-F60E-462A-B1EF-A6429AA70865@1x</title>
  <desc>Created with sketchtool.</desc>
  <defs>
    <path d="M6.26470588,13.1917844 L6.26470588,18.2941176 C6.26470588,18.57026 6.04084826,18.7941176 5.76470588,18.7941176 C5.48856351,18.7941176 5.26470588,18.57026 5.26470588,18.2941176 L5.26470588,12.9411765 C5.26470588,12.6650341 5.48856351,12.4411765 5.76470588,12.4411765 C6.04084826,12.4411765 6.26470588,12.6650341 6.26470588,12.9411765 L6.26470588,13.1917844 C6.18909728,13.2358288 6.14123986,13.2717493 6.11825927,13.2947299 C5.80327684,13.6097123 5.26470588,13.3866289 5.26470588,12.9411765 L5.26470588,3.76470588 C5.26470588,3.63209764 5.3173843,3.50492068 5.41115249,3.41115249 C5.55402918,3.2682758 5.82598519,3.0869718 6.24812819,2.9181146 C6.90633745,2.65483089 7.75790735,2.5 8.82352941,2.5 C9.86269347,2.5 10.5773444,2.70418597 12.0680483,3.30046754 C13.4449914,3.85124479 14.0685758,4.02941176 14.9411765,4.02941176 C15.8829074,4.02941176 16.6085433,3.89747795 17.145187,3.68282048 C17.4399558,3.56491297 17.5981468,3.45945227 17.6464466,3.41115249 C17.961429,3.09617006 18.5,3.31925346 18.5,3.76470588 L18.5,12.9411765 C18.5,13.0737847 18.4473216,13.2009617 18.3535534,13.2947299 C18.2106767,13.4376065 17.9387207,13.6189106 17.5165777,13.7877678 C16.8583684,14.0510515 16.0067985,14.2058824 14.9411765,14.2058824 C13.9020124,14.2058824 13.1873615,14.0016964 11.6966576,13.4054148 C10.3197145,12.8546376 9.69613006,12.6764706 8.82352941,12.6764706 C7.88179853,12.6764706 7.15616255,12.8084044 6.61951887,13.0230619 C6.46499834,13.0848701 6.34800875,13.143258 6.26470588,13.1917844 Z M6.26470587,4.01531386 L6.26470587,12.0879932 C6.92061581,11.828719 7.76683165,11.6764706 8.82352941,11.6764706 C9.86269347,11.6764706 10.5773444,11.8806566 12.0680483,12.4769381 C13.4449914,13.0277154 14.0685758,13.2058824 14.9411765,13.2058824 C15.8829074,13.2058824 16.6085433,13.0739485 17.145187,12.8592911 C17.2997075,12.7974829 17.4166971,12.739095 17.5,12.6905685 L17.5,4.61788912 C16.8440901,4.87716335 15.9978742,5.02941176 14.9411765,5.02941176 C13.9020124,5.02941176 13.1873615,4.8252258 11.6966576,4.22894423 C10.3197145,3.67816697 9.69613006,3.5 8.82352941,3.5 C7.88179853,3.5 7.15616255,3.63193382 6.61951887,3.84659129 C6.46499834,3.9083995 6.34800875,3.96678738 6.26470587,4.01531386 Z" id="path-1"></path>
  </defs>
  <g id="VISUAL-MOCKUPS" stroke="none" stroke-width="1" fill="none" fill-rule="evenodd">
    <g id="60.10---Settings" transform="translate(-389.000000, -563.000000)">
      <g id="Group-8" transform="translate(370.000000, 80.000000)">
        <g id="Group" transform="translate(14.000000, 400.000000)">
          <g id="Group-3" transform="translate(0.000000, 81.000000)">
            <g id="icon/job-role-copy">
              <mask id="mask-2" fill="white">
                <use xlink:href="#path-1"></use>
              </mask>
              <use id="Combined-Shape" fill="#212B36" fill-rule="nonzero" xlink:href="#path-1"></use>
              <g id="color" mask="url(#mask-2)" fill="#062037">
                <rect id="Rectangle" x="0" y="0" width="22" height="22"></rect>
              </g>
            </g>
          </g>
        </g>
      </g>
    </g>
  </g>
</svg>
