<?xml version="1.0" encoding="UTF-8"?>
<svg width="17px" height="15px" viewBox="0 0 17 15" version="1.1" xmlns="http://www.w3.org/2000/svg" xmlns:xlink="http://www.w3.org/1999/xlink">
  <!-- Generator: sketchtool 55.2 (78181) - https://sketchapp.com -->
  <title>2AF2BAA2-CD58-43E5-BF09-A43C60ADD179@1x</title>
  <desc>Created with sketchtool.</desc>
  <defs>
    <path d="M8,6.5 L8,5.5 C8,4.3954305 8.8954305,3.5 10,3.5 L13,3.5 C14.1045695,3.5 15,4.3954305 15,5.5 L15,6.5 L17,6.5 C18.3807119,6.5 19.5,7.61928813 19.5,9 L19.5,15.5 C19.5,16.8807119 18.3807119,18 17,18 L6,18 C4.61928813,18 3.5,16.8807119 3.5,15.5 L3.5,9 C3.5,7.61928813 4.61928813,6.5 6,6.5 L8,6.5 Z M9,6.5 L14,6.5 L14,5.5 C14,4.94771525 13.5522847,4.5 13,4.5 L10,4.5 C9.44771525,4.5 9,4.94771525 9,5.5 L9,6.5 Z M8,7.5 L6,7.5 C5.17157288,7.5 4.5,8.17157288 4.5,9 L4.5,15.5 C4.5,16.3284271 5.17157288,17 6,17 L8,17 L8,7.5 Z M9,7.5 L9,17 L14,17 L14,7.5 L9,7.5 Z M15,7.5 L15,17 L17,17 C17.8284271,17 18.5,16.3284271 18.5,15.5 L18.5,9 C18.5,8.17157288 17.8284271,7.5 17,7.5 L15,7.5 Z" id="path-1"></path>
  </defs>
  <g id="VISUAL-MOCKUPS" stroke="none" stroke-width="1" fill="none" fill-rule="evenodd">
    <g id="60.10---Settings" transform="translate(-387.000000, -532.000000)">
      <g id="Group-8" transform="translate(370.000000, 80.000000)">
        <g id="Group" transform="translate(14.000000, 400.000000)">
          <g id="Group-2" transform="translate(0.000000, 49.000000)">
            <g id="icon/job-role">
              <mask id="mask-2" fill="white">
                <use xlink:href="#path-1"></use>
              </mask>
              <use id="Combined-Shape" fill="#212B36" fill-rule="nonzero" xlink:href="#path-1"></use>
              <g id="color" mask="url(#mask-2)" fill="#062037">
                <rect id="Rectangle" x="0" y="0" width="22" height="22"></rect>
              </g>
            </g>
          </g>
        </g>
      </g>
    </g>
  </g>
</svg>
