<?xml version="1.0" encoding="UTF-8"?>
<svg width="14px" height="18px" viewBox="0 0 14 18" version="1.1" xmlns="http://www.w3.org/2000/svg" xmlns:xlink="http://www.w3.org/1999/xlink">
  <!-- Generator: sketchtool 55.2 (78181) - https://sketchapp.com -->
  <title>2AD48782-DD20-4CB9-A6F1-AC2EB5E992C8@1x</title>
  <desc>Created with sketchtool.</desc>
  <defs>
    <path d="M18,9.5000001 C18,11.8663579 16.7237992,14.2060593 14.6129763,16.4341501 C13.884751,17.2028324 13.1060015,17.9037069 12.3270884,18.5239526 C12.054168,18.741278 11.8003837,18.9332431 11.5720422,19.0981565 C11.4335339,19.1981902 11.3331977,19.2676823 11.2773501,19.304914 C11.1094004,19.4168805 10.8905996,19.4168805 10.7226499,19.304914 C10.6668023,19.2676823 10.5664661,19.1981902 10.4279578,19.0981565 C10.1996163,18.9332431 9.94583197,18.741278 9.67291161,18.5239526 C8.89399849,17.9037069 8.11524895,17.2028324 7.38702366,16.4341501 C5.27620079,14.2060593 4,11.8663579 4,9.5000001 C4,5.63400682 7.13400676,2.5000001 11,2.5000001 C14.8659932,2.5000001 18,5.63400682 18,9.5000001 Z M11.7041616,17.7416724 C12.448686,17.1488104 13.193374,16.4785913 13.8870237,15.7464055 C15.8387008,13.6863018 17,11.5572533 17,9.5000001 C17,6.18629157 14.3137085,3.5000001 11,3.5000001 C7.6862915,3.5000001 5,6.18629157 5,9.5000001 C5,11.5572533 6.16129921,13.6863018 8.11297634,15.7464055 C8.80662605,16.4785913 9.55131401,17.1488104 10.2958384,17.7416724 C10.5507323,17.9446435 10.7874528,18.1239118 11,18.2777539 C11.2125472,18.1239118 11.4492677,17.9446435 11.7041616,17.7416724 Z M11,12.1666667 C9.52724067,12.1666667 8.33333333,10.9727593 8.33333333,9.5 C8.33333333,8.02724067 9.52724067,6.83333333 11,6.83333333 C12.4727593,6.83333333 13.6666667,8.02724067 13.6666667,9.5 C13.6666667,10.9727593 12.4727593,12.1666667 11,12.1666667 Z M11,11.1666667 C11.9204746,11.1666667 12.6666667,10.4204746 12.6666667,9.5 C12.6666667,8.57952542 11.9204746,7.83333333 11,7.83333333 C10.0795254,7.83333333 9.33333333,8.57952542 9.33333333,9.5 C9.33333333,10.4204746 10.0795254,11.1666667 11,11.1666667 Z" id="path-1"></path>
  </defs>
  <g id="VISUAL-MOCKUPS" stroke="none" stroke-width="1" fill="none" fill-rule="evenodd">
    <g id="60.10---Settings" transform="translate(-388.000000, -595.000000)">
      <g id="Group-8" transform="translate(370.000000, 80.000000)">
        <g id="Group" transform="translate(14.000000, 400.000000)">
          <g id="Group-5" transform="translate(0.000000, 113.000000)">
            <g id="icon/job-role-copy-2">
              <mask id="mask-2" fill="white">
                <use xlink:href="#path-1"></use>
              </mask>
              <use id="Combined-Shape" fill="#212B36" fill-rule="nonzero" xlink:href="#path-1"></use>
              <g id="color" mask="url(#mask-2)" fill="#062037">
                <rect id="Rectangle" x="0" y="0" width="22" height="22"></rect>
              </g>
            </g>
          </g>
        </g>
      </g>
    </g>
  </g>
</svg>
