<?xml version="1.0" encoding="UTF-8"?>
<svg width="80px" height="80px" viewBox="0 0 80 80" version="1.1" xmlns="http://www.w3.org/2000/svg" xmlns:xlink="http://www.w3.org/1999/xlink">
  <!-- Generator: Sketch 59.1 (86144) - https://sketch.com -->
  <title>icon/user 80px@1x</title>
  <desc>Created with Sketch.</desc>
  <defs>
    <path d="M40,0 C62.09139,0 80,17.90861 80,40 C80,62.09139 62.09139,80 40,80 C17.90861,80 0,62.09139 0,40 C0,17.90861 17.90861,0 40,0 Z M40,2 C19.0131795,2 2,19.0131795 2,40 C2,60.9868205 19.0131795,78 40,78 C60.9868205,78 78,60.9868205 78,40 C78,19.0131795 60.9868205,2 40,2 Z M51.7,44.7712121 C58.7140163,44.7712121 64.4,50.4571958 64.4,57.4712121 L64.4,57.4712121 L64.4,67.3 C64.4,67.8522847 63.9522847,68.3 63.4,68.3 C62.8477153,68.3 62.4,67.8522847 62.4,67.3 L62.4,67.3 L62.4,57.4712121 C62.4,51.5617653 57.6094468,46.7712121 51.7,46.7712121 L51.7,46.7712121 L28.3,46.7712121 C22.3905532,46.7712121 17.6,51.5617653 17.6,57.4712121 L17.6,57.4712121 L17.6,67.3 C17.6,67.8522847 17.1522847,68.3 16.6,68.3 C16.0477153,68.3 15.6,67.8522847 15.6,67.3 L15.6,67.3 L15.6,57.4712121 C15.6,50.4571958 21.2859837,44.7712121 28.3,44.7712121 L28.3,44.7712121 Z M40,15.6 C47.0140163,15.6 52.7,21.2859837 52.7,28.3 C52.7,35.3140163 47.0140163,41 40,41 C32.9859837,41 27.3,35.3140163 27.3,28.3 C27.3,21.2859837 32.9859837,15.6 40,15.6 Z M40,17.6 C34.0905532,17.6 29.3,22.3905532 29.3,28.3 C29.3,34.2094468 34.0905532,39 40,39 C45.9094468,39 50.7,34.2094468 50.7,28.3 C50.7,22.3905532 45.9094468,17.6 40,17.6 Z" id="path-1"></path>
  </defs>
  <g id="VISUAL-MOCKUPS" stroke="none" stroke-width="1" fill="none" fill-rule="evenodd">
    <g id="Version-5----60.10---Settings-Copy" transform="translate(-754.000000, -371.000000)">
      <g id="Group-9" transform="translate(714.000000, 292.000000)">
        <g id="Group-6" transform="translate(40.000000, 79.000000)">
          <g id="icon/user-80px">
            <mask id="mask-2" fill="white">
              <use xlink:href="#path-1"></use>
            </mask>
            <use id="user-80px" fill="#9BA6AF" fill-rule="nonzero" xlink:href="#path-1"></use>
            <g id="color-/-Background-/-Grey-#C4CDD5" mask="url(#mask-2)" fill="#C4CDD5" fill-rule="evenodd">
              <rect id="Rectangle" x="0" y="0" width="80" height="80"></rect>
            </g>
          </g>
        </g>
      </g>
    </g>
  </g>
</svg>
