<?xml version="1.0" encoding="UTF-8"?>
<svg width="182px" height="182px" viewBox="0 0 182 182" version="1.1" xmlns="http://www.w3.org/2000/svg" xmlns:xlink="http://www.w3.org/1999/xlink">
  <!-- Generator: Sketch 59.1 (86144) - https://sketch.com -->
  <title>icon/user 200px@1x</title>
  <desc>Created with Sketch.</desc>
  <defs>
    <circle id="path-1" cx="90" cy="90" r="90"></circle>
  </defs>
  <g id="VISUAL-MOCKUPS" stroke="none" stroke-width="1" fill="none" fill-rule="evenodd">
    <g id="Version-5----60.10---Settings-Copy-2" transform="translate(-379.000000, -89.000000)">
      <g id="Group-8" transform="translate(370.000000, 80.000000)">
        <g id="Group-7">
          <g id="icon/user-200px">
            <g id="Group" transform="translate(10.000000, 10.000000)">
              <mask id="mask-2" fill="white">
                <use xlink:href="#path-1"></use>
              </mask>
              <use id="Oval" stroke="#C4CDD5" stroke-width="2" fill="#FFFFFF" xlink:href="#path-1"></use>
              <circle id="Oval-Copy-2" stroke="#C4CDD5" stroke-width="2" fill="#FFFFFF" mask="url(#mask-2)" cx="90" cy="90" r="90"></circle>
              <path d="M144,157.5 L144,125.818182 C144,110.906494 131.911688,98.8181818 117,98.8181818 L63,98.8181818 C48.0883118,98.8181818 36,110.906494 36,125.818182 L36,157.5" id="Path" stroke="#C4CDD5" stroke-width="2" stroke-linecap="round" stroke-linejoin="round" mask="url(#mask-2)"></path>
              <path d="M124.911458,105.090909 C139.823146,105.090909 151.911458,117.179221 151.911458,132.090909 L151.911458,132.090909 L151.912861,168.278265 C136.870731,179.577304 118.172994,186.272727 97.9114581,186.272727 C77.6495798,186.272727 58.9515542,179.577078 43.9092938,168.277693 L43.9114581,132.090909 C43.9114581,117.179221 55.9997699,105.090909 70.9114581,105.090909 L70.9114581,105.090909 Z" id="Combined-Shape" fill="#C4CDD5" opacity="0.300000012" mask="url(#mask-2)"></path>
              <circle id="Oval-Copy" fill="#C4CDD5" opacity="0.300000012" mask="url(#mask-2)" cx="97.2727273" cy="69.3636364" r="27"></circle>
              <circle id="Oval" stroke="#C4CDD5" stroke-width="2" stroke-linecap="round" stroke-linejoin="round" mask="url(#mask-2)" cx="90" cy="63" r="27"></circle>
            </g>
          </g>
        </g>
      </g>
    </g>
  </g>
</svg>
