<?xml version="1.0" encoding="UTF-8"?>
<svg width="19px" height="19px" viewBox="0 0 19 19" version="1.1" xmlns="http://www.w3.org/2000/svg" xmlns:xlink="http://www.w3.org/1999/xlink">
    <!-- Generator: Sketch 57.1 (83088) - https://sketch.com -->
    <title>icon/close@1x</title>
    <desc>Created with Sketch.</desc>
    <defs>
        <path d="M3.35355339,2.64644661 L11.5,10.793 L19.6464466,2.64644661 C19.820013,2.47288026 20.0894374,2.45359511 20.2843055,2.58859116 L20.3535534,2.64644661 C20.5488155,2.84170876 20.5488155,3.15829124 20.3535534,3.35355339 L20.3535534,3.35355339 L12.207,11.5 L20.3535534,19.6464466 C20.5488155,19.8417088 20.5488155,20.1582912 20.3535534,20.3535534 C20.1582912,20.5488155 19.8417088,20.5488155 19.6464466,20.3535534 L11.5,12.207 L3.35355339,20.3535534 C3.17998704,20.5271197 2.91056264,20.5464049 2.7156945,20.4114088 L2.64644661,20.3535534 C2.45118446,20.1582912 2.45118446,19.8417088 2.64644661,19.6464466 L2.64644661,19.6464466 L10.793,11.5 L2.64644661,3.35355339 C2.45118446,3.15829124 2.45118446,2.84170876 2.64644661,2.64644661 C2.84170876,2.45118446 3.15829124,2.45118446 3.35355339,2.64644661 Z" id="path-1"></path>
    </defs>
    <g id="VISUAL-MOCKUPS" stroke="none" stroke-width="1" fill="none" fill-rule="evenodd">
        <g id="Group-26" transform="translate(-1392.000000, -96.000000)">
            <g id="BANNER-OLD" transform="translate(0.000000, 79.000000)">
                <g id="icon/close-2" transform="translate(1390.000000, 15.000000)">
                    <g id="icon/status/misuse/24" stroke-width="1" fill-rule="evenodd" transform="translate(3.000000, 3.000000)" stroke="#212B36" stroke-linecap="round" stroke-linejoin="round">
                        <path d="M0,17 L17,0" id="Path"></path>
                        <path d="M0,17 L17,0" id="Path-Copy" transform="translate(8.500000, 8.500000) scale(1, -1) translate(-8.500000, -8.500000) "></path>
                    </g>
                    <mask id="mask-2" fill="white">
                        <use xlink:href="#path-1"></use>
                    </mask>
                    <use id="Combined-Shape" fill="#212B36" fill-rule="nonzero" xlink:href="#path-1"></use>
                    <g id="color-/-White-#FFFFFF" mask="url(#mask-2)" fill="#FFFFFF" fill-rule="evenodd">
                        <rect id="Rectangle" x="0" y="0" width="22" height="22"></rect>
                    </g>
                </g>
            </g>
        </g>
    </g>
</svg>